<svg width="19" height="21" viewBox="0 0 19 21" fill="none" xmlns="http://www.w3.org/2000/svg">
<path d="M0 2.77L1.28 1.5L19 19.22L17.73 20.5L16 18.76C15.71 18.93 15.38 19 15.03 19C15.03 19.58 14.56 20 14 20C13.5 20 13 19.58 13 19H7C7 19.58 6.5 20 6 20C5.44 20 4.97 19.58 4.97 19C3.89 19 3 18.13 3 17V5.78L0 2.77ZM7.5 16H6V8.78L4.97 7.74V17H14.23L13.25 16H12.5V15.26L10.75 13.5V16H9.25V12L7.5 10.28V16ZM10.75 7V8.43L9.32 7H10.75ZM12.5 7H14V11.67L12.5 10.17V7ZM15.03 4C16.11 4 17 4.88 17 6V14.68L15.03 12.7V6H8.33L6.31 4H7V1C7 0.42 7.46 0 8 0H12C12.54 0 13 0.42 13 1V4H15.03ZM8.5 1.5V4H11.5V1.5H8.5Z" fill="#8B8888"/>
</svg>
