<svg width="16" height="22" viewBox="0 0 16 22" fill="none" xmlns="http://www.w3.org/2000/svg">
<path d="M14 9.5H2C1.46957 9.5 0.960859 9.71071 0.585786 10.0858C0.210714 10.4609 0 10.9696 0 11.5V19.5C0 20.0304 0.210714 20.5391 0.585786 20.9142C0.960859 21.2893 1.46957 21.5 2 21.5H14C14.5304 21.5 15.0391 21.2893 15.4142 20.9142C15.7893 20.5391 16 20.0304 16 19.5V11.5C16 10.9696 15.7893 10.4609 15.4142 10.0858C15.0391 9.71071 14.5304 9.5 14 9.5ZM14 19.5H2V15.5H14V19.5ZM14 13.5H2V11.5H14V13.5ZM13 3.5V8.5H11.5V5H5.88L8.3 7.43L7.24 8.5L3 4.25L7.24 0L8.3 1.07L5.88 3.5H13Z" fill="#37A72E"/>
</svg>
