<svg width="16" height="22" viewBox="0 0 16 22" fill="none" xmlns="http://www.w3.org/2000/svg">
<path d="M14 10H2C1.46957 10 0.960859 10.2107 0.585786 10.5858C0.210714 10.9609 0 11.4696 0 12V20C0 20.5304 0.210714 21.0391 0.585786 21.4142C0.960859 21.7893 1.46957 22 2 22H14C14.5304 22 15.0391 21.7893 15.4142 21.4142C15.7893 21.0391 16 20.5304 16 20V12C16 11.4696 15.7893 10.9609 15.4142 10.5858C15.0391 10.2107 14.5304 10 14 10ZM14 20H2V16H14V20ZM14 14H2V12H14V14ZM13 4V9H11.5V5.5H5.88L8.3 7.93L7.24 9L3 4.75L7.24 0.5L8.3 1.57L5.88 4H13Z" fill="#8B8888"/>
</svg>
