<svg width="391" height="35" viewBox="0 0 391 35" fill="none" xmlns="http://www.w3.org/2000/svg">
<path d="M171.03 22.6943C165.472 16.2693 160.745 11.0089 160.526 11.0046C159.963 10.9935 160.027 30.8749 160.595 32.3691C161.027 33.5062 160.925 33.6004 159.26 33.6004C157.834 33.6004 157.539 33.4329 157.853 32.8026C158.326 31.8501 158.721 9.69868 158.295 7.99931C158.131 7.34868 157.622 6.44054 157.163 5.9813C156.404 5.2226 156.568 5.14634 158.959 5.14634C161.397 5.14634 161.613 5.25326 161.907 6.60893C162.09 7.45241 165.833 12.1864 170.749 17.7925L179.273 27.5135V16.9682C179.273 9.47537 179.089 6.23805 178.635 5.78458C178.139 5.28819 178.5 5.14634 180.262 5.14634C181.949 5.14634 182.418 5.31604 182.097 5.8112C181.86 6.17683 181.547 12.7536 181.401 20.4261L181.135 34.3763L171.03 22.6943H171.03ZM298.94 22.7206L288.569 10.8057L288.403 13.9593C288.312 15.6938 288.312 20.8226 288.403 25.3566L288.569 33.6003L286.872 33.6389C285.414 33.6721 285.246 33.5463 285.675 32.7431C285.95 32.2293 286.175 26.2474 286.175 19.4502C286.175 8.69672 286.061 6.96523 285.295 6.11894C284.453 5.1885 284.535 5.14634 287.188 5.14634C288.979 5.14634 289.84 5.34297 289.618 5.70158C289.1 6.53946 290.431 8.30253 299.17 18.3512L307.184 27.5672L307.328 17.4071C307.419 11.0053 307.265 6.8584 306.911 6.19663C306.393 5.2291 306.523 5.14634 308.56 5.14634C310.341 5.14634 310.657 5.28404 310.183 5.85477C309.795 6.32256 309.547 11.3314 309.453 20.5995L309.311 34.6356L298.94 22.7207V22.7206ZM3.14865 33.4773L0.672852 33.2803L1.88046 31.9772C2.54464 31.2605 6.00931 23.9132 9.57968 15.6499C13.1501 7.38652 16.2359 0.455913 16.4371 0.248513C16.6383 0.0410829 19.6728 6.84374 23.1803 15.3655C26.6879 23.8873 29.9772 31.3952 30.4898 32.0497L31.422 33.2398L28.2347 33.4201C25.3571 33.5828 25.0774 33.5066 25.3547 32.636C25.5236 32.1056 25.118 30.1311 24.4533 28.2482L23.2447 24.8248H15.4087H7.57265L6.42607 28.2702C5.79543 30.1652 5.43308 32.1996 5.62077 32.791C5.80836 33.3824 5.88607 33.8231 5.79324 33.7704C5.70034 33.7177 4.51036 33.5858 3.14865 33.4773V33.4773ZM22.3739 22.8304C22.3689 22.2913 16.0917 6.12897 15.7578 5.79502C15.6125 5.64963 15.2537 6.16122 14.9607 6.93192C14.6676 7.70264 13.1053 11.5613 11.4888 15.5068C9.87223 19.4522 8.54964 22.8039 8.54964 22.9548C8.54964 23.1058 11.661 23.2292 15.4637 23.2292C19.2664 23.2292 22.376 23.0498 22.3739 22.8304V22.8304ZM36.7657 32.6824C35.1432 31.8143 34.0159 30.6896 33.1758 29.1009C32.032 26.938 31.9508 26.1664 31.9478 17.4282C31.9458 10.3403 31.7594 7.71681 31.1815 6.60886L30.4186 5.14634H33.033H35.6474L35.2618 6.87486C35.0498 7.82554 34.8783 12.7171 34.8809 17.745C34.8859 26.1318 34.9758 27.0075 35.9775 28.3492C37.7927 30.7804 39.5751 31.7802 42.6193 32.0745C45.0804 32.3125 45.9507 32.1293 48.4384 30.8499L51.3636 29.3455L51.5073 18.2949C51.5987 11.2787 51.4461 6.8613 51.0898 6.19529C50.5653 5.21533 50.7058 5.14634 53.225 5.14634C55.7263 5.14634 55.8818 5.22081 55.3711 6.17503C54.6854 7.45627 54.6211 31.4361 55.2998 32.7046C55.7149 33.4802 55.4705 33.6003 53.4782 33.6003C51.2479 33.6003 51.1863 33.5551 51.4718 32.1277L51.7663 30.655L48.9519 32.1152C44.9415 34.1959 40.022 34.4249 36.7656 32.6824H36.7657ZM60.538 33.4853C59.4199 33.3159 59.0754 32.9692 59.0754 32.0129C59.0754 31.325 58.9188 30.3237 58.7274 29.7879C58.4656 29.055 58.7619 29.1675 59.9241 30.2424C62.8305 32.9307 66.1676 33.5007 68.9758 31.7884C72.754 29.4845 71.3653 25.1178 65.3235 20.3041C63.1207 18.549 60.8137 16.3801 60.1969 15.4845C57.7126 11.8771 59.487 6.64673 63.6923 5.18137C65.5558 4.53206 66.3243 4.52488 68.8605 5.13334C71.7237 5.82022 71.8398 5.91573 71.8398 7.58372V9.31931L70.2852 7.76469C67.5788 5.05833 62.3349 5.87346 61.5182 9.12742C60.9897 11.233 62.3489 13.163 67.291 17.3247C72.4038 21.6301 73.5874 23.4407 73.5189 26.8521C73.428 31.3821 70.39 33.9111 65.1917 33.7846C63.4366 33.7418 61.3424 33.6072 60.538 33.4853V33.4853ZM83.5862 32.7173C83.8536 32.2176 84.0724 26.1456 84.0724 19.224V6.6392L79.0134 6.82346C74.9644 6.97096 74.0089 6.86641 74.2268 6.29948C74.3766 5.90993 74.4991 5.49106 74.4991 5.36875C74.4991 5.2464 79.3575 5.14634 85.2956 5.14634C96.2953 5.14634 97.3686 5.33076 97.3686 7.22056C97.3686 7.84105 97.2269 7.87647 96.7304 7.38004C96.3359 6.9856 94.3964 6.74186 91.6522 6.74186H87.2123L87.3709 20.1711L87.5296 33.6003L85.3148 33.6131C83.3892 33.6242 83.1636 33.5072 83.5863 32.7173H83.5862ZM99.0166 32.7046C99.7754 31.2868 99.6295 6.55636 98.8577 5.78465C98.3614 5.28827 99.3107 5.1464 103.13 5.1464C110.512 5.1464 113.21 6.69638 113.721 11.2323C114.049 14.1377 113.196 16.4128 111.128 18.1532C110.288 18.8597 109.601 19.5701 109.601 19.732C109.601 20.2514 115.813 28.7864 117.388 30.4305C118.224 31.3038 119.507 32.4462 120.238 32.969L121.568 33.9195L120.238 33.6343C119.507 33.4774 118.484 33.3458 117.966 33.3418C116.469 33.3302 112.541 29.3462 109.249 24.5004C106.471 20.4102 106.071 20.0382 104.453 20.0382H102.687V25.9236C102.687 29.1605 102.903 32.2119 103.166 32.7046C103.585 33.4866 103.322 33.6004 101.092 33.6004C98.8616 33.6004 98.5981 33.4866 99.0166 32.7046H99.0166ZM107.665 18.2422C109.899 17.3089 110.896 15.0125 110.519 11.6703C110.145 8.35007 108.361 6.74198 105.051 6.74198H102.687V12.8583V18.9745H104.3C105.187 18.9745 106.701 18.6449 107.665 18.2422V18.2422ZM123.475 32.7173C124.159 31.44 124.1 7.46413 123.41 6.17515C122.906 5.23248 123.05 5.14645 125.139 5.14665L127.418 5.14683V19.3736V33.6004L125.203 33.6132C123.278 33.6243 123.052 33.5074 123.475 32.7174L123.475 32.7173ZM130.596 31.9771C131.201 31.0843 134.203 24.5766 137.269 17.5157C140.334 10.4548 142.989 4.84299 143.169 5.04502C143.349 5.24706 145.7 10.7974 148.395 17.379C151.089 23.9607 153.824 30.3029 154.471 31.473L155.649 33.6004H152.903C150.949 33.6004 150.23 33.4119 150.408 32.9462C150.546 32.5864 150.244 30.9709 149.736 29.3562L148.812 26.4204H142.014H135.215L134.321 29.1122C133.83 30.5926 133.534 32.2134 133.665 32.7138C133.862 33.4656 133.52 33.6217 131.7 33.6121L129.497 33.6005L130.596 31.9771V31.9771ZM147.57 24.2511C147.852 23.9539 142.482 10.4626 142.086 10.4732C141.714 10.4833 136.26 23.9145 136.474 24.2931C136.654 24.6122 147.266 24.572 147.57 24.251V24.2511ZM194.414 32.2708C195.104 31.5395 198.716 23.9353 202.44 15.3725C206.164 6.80982 209.299 -0.107251 209.408 0.00125944C209.516 0.109779 212.46 7.09882 215.95 15.5325C219.44 23.9662 222.75 31.4816 223.305 32.2334L224.316 33.6004H221.053C217.873 33.6004 217.795 33.5664 217.986 32.268C218.093 31.5352 217.664 29.5545 217.033 27.8663L215.884 24.797L208.086 24.9439L200.288 25.0908L199.09 28.4537C198.284 30.7186 198.048 32.1079 198.37 32.7085C198.789 33.4914 198.5 33.6004 196.002 33.6004H193.157L194.414 32.2708V32.2708ZM212.414 15.6505C210.804 11.4821 209.263 7.49992 208.991 6.80119C208.719 6.10243 208.402 5.62389 208.289 5.73777C208.087 5.93935 204.4 14.8306 202.194 20.4371L201.095 23.2293H208.218H215.341L212.414 15.6505V15.6505ZM225.932 32.8171C226.559 31.5758 226.729 8.38587 226.124 6.64976C225.6 5.14839 225.603 5.1464 227.938 5.1464H230.276L229.743 6.67527C229.138 8.40938 229.315 31.539 229.943 32.8027C230.265 33.4518 229.89 33.6031 227.93 33.6148C225.943 33.6266 225.593 33.4871 225.932 32.8171H225.932ZM234.963 32.8028C235.591 31.5023 235.782 9.1688 235.184 7.00169L234.645 5.04874L239.896 5.23057C245.878 5.43772 247.435 6.17268 249.134 9.59177C250.525 12.3911 249.948 14.907 247.309 17.546L245.228 19.627L248.631 24.4864C251.96 29.2391 254.523 32.0458 256.658 33.2756C257.539 33.7834 257.357 33.8287 255.594 33.5404C251.47 32.8658 249.327 30.9475 244.227 23.3624C242.193 20.3368 241.824 20.0384 240.118 20.0384H238.245L238.421 26.0217C238.519 29.3125 238.778 32.3705 238.997 32.8172C239.325 33.4856 238.969 33.6268 236.987 33.615C235.032 33.6032 234.651 33.4503 234.963 32.8028H234.963ZM243.627 18.0431C246.024 16.8461 247.093 13.992 246.279 10.9681C245.538 8.21836 243.565 6.7421 240.631 6.7421H238.309V12.8584V18.9747L240.037 18.9739C240.988 18.9734 242.604 18.5546 243.627 18.0431V18.0431ZM259.476 20.1241C259.59 10.4015 259.461 6.43845 259.012 5.89701C258.488 5.26604 258.867 5.14658 261.392 5.14658H264.394L263.574 6.39835C262.884 7.45163 262.776 9.5815 262.897 19.8276L263.04 32.005L267.423 32.1594C269.953 32.2486 272.276 32.0618 272.92 31.7174C274.349 30.9524 274.723 31.3452 273.947 32.7959C273.357 33.897 273.047 33.9367 266.325 33.7721L259.317 33.6005L259.476 20.1241H259.476ZM276.868 19.3736V5.14658L278.73 5.1461L280.591 5.14561L280.432 18.4289C280.338 26.2572 280.484 32.1051 280.785 32.6691C281.241 33.5199 281.052 33.6246 279.083 33.6133L276.868 33.6005V19.3735V19.3736ZM314.738 32.8028C315.345 31.5447 315.561 10.1576 314.995 7.50102L314.485 5.10947L319.55 5.26096C324.407 5.40625 324.635 5.46718 325.104 6.7421C325.496 7.80869 325.46 7.9402 324.924 7.4069C324.544 7.0283 322.928 6.7421 321.171 6.7421H318.087V12.3265C318.087 15.398 318.266 17.9329 318.485 17.9596C320.901 18.2543 323.254 18.0924 324.278 17.561C325.477 16.939 325.532 16.9898 325.532 18.7126C325.532 20.4716 325.495 20.5019 323.986 19.9757C323.135 19.6791 321.52 19.5121 320.396 19.6045L318.353 19.7724L318.203 26.0217L318.053 32.2709H321.758C323.796 32.2709 326.111 32.0247 326.903 31.7237C328.314 31.1871 328.326 31.1999 327.532 32.3885C326.767 33.5341 326.384 33.6006 320.538 33.6006C315.225 33.6006 314.408 33.4882 314.739 32.8028H314.738ZM331.782 33.4856C330.663 33.3162 330.319 32.9694 330.319 32.0132C330.319 31.3252 330.154 30.3239 329.952 29.7881C329.698 29.1151 330.188 29.3403 331.536 30.5162C335.96 34.3749 342.342 32.9659 342.216 28.1582C342.143 25.3726 341.172 24.028 336.542 20.3011C331.624 16.3425 330.734 15.1454 330.452 12.1126C330.15 8.87247 331.84 6.26031 334.936 5.18162C336.799 4.53231 337.568 4.52512 340.104 5.13358C342.967 5.82046 343.083 5.91597 343.083 7.58396V9.31956L341.529 7.76493C340.311 6.54701 339.497 6.21024 337.771 6.21024C334.966 6.21024 333.755 6.86938 333.098 8.75443C332.268 11.137 333.386 12.9294 338.297 17.083C343.538 21.5152 344.86 23.4809 344.81 26.7659C344.741 31.3142 341.642 33.9116 336.435 33.7848C334.68 33.742 332.586 33.6074 331.782 33.4856V33.4856Z" fill="black"/>
<path fill-rule="evenodd" clip-rule="evenodd" d="M390.408 17.2028C383.157 19.0137 376.119 22.2589 370.15 32.1938H354.43L369.34 17.2028L354.43 2.21167H370.15C376.119 12.1467 383.157 15.3918 390.408 17.2028Z" fill="#FF0800" stroke="#FF0800" stroke-width="0.90755"/>
</svg>
