<svg width="200" height="22" viewBox="0 0 200 22" fill="none" xmlns="http://www.w3.org/2000/svg">
<g clip-path="url(#clip0_842_15)">
<path d="M17.985 0.800672C18.989 0.269672 20.117 -0.00632808 21.252 0.0196719C26.324 0.0176719 31.396 0.0366719 36.468 0.0136719C35.806 1.48267 35.103 3.41667 33.222 3.58567C28.509 3.71667 23.784 3.57367 19.066 3.65167C17.9 3.63167 16.738 4.24567 16.244 5.32967C15.228 7.32067 14.316 9.36467 13.318 11.3677C17.361 11.3647 21.406 11.3707 25.45 11.3617C25.096 12.0497 24.831 12.8137 24.275 13.3717C23.597 13.9057 22.674 13.8067 21.869 13.8307C18.738 13.7897 15.603 13.8647 12.473 13.7867C11.344 15.9027 10.391 18.1047 9.3 20.2397C8.803 21.2467 7.716 21.8977 6.591 21.8587C4.395 21.8587 2.194 21.9387 0 21.7867V21.6687C0.038 21.6777 0.116 21.6997 0.156 21.7087C2.056 17.6047 4.037 13.5437 6 9.46867C6.965 7.42767 8.615 5.74167 10.603 4.67167C13.049 3.35367 15.524 2.09167 17.985 0.800672Z" fill="#0B1560"/>
<path d="M38.996 1.80064C39.505 0.722643 40.671 0.0506434 41.849 0.0316434C44.005 -0.00235661 46.161 0.0446436 48.318 0.00964355C45.144 6.68564 41.894 13.3286 38.697 19.9946C38.25 21.0856 37.154 21.8696 35.963 21.8526C33.748 21.8836 31.532 21.8596 29.318 21.8626C32.54 15.1756 35.769 8.48964 38.996 1.80064V1.80064Z" fill="#0B1560"/>
<path d="M56.965 0.136688C57.671 -0.214312 58.49 0.183688 58.874 0.814688C62.033 5.15869 65.211 9.48969 68.401 13.8087C68.752 14.2867 69.016 14.8147 69.276 15.3457C71.297 11.3477 73.176 7.27669 75.132 3.24769C75.635 2.25069 76.004 1.05069 77.061 0.491688C78.522 -0.289312 80.246 0.116689 81.83 0.0296886C78.306 7.30869 74.789 14.5897 71.269 21.8717C69.484 21.8467 67.697 21.9087 65.915 21.8447C64.806 21.8097 63.95 20.9887 63.321 20.1567C60.856 16.8757 58.387 13.5967 55.921 10.3227C55.39 9.64969 54.874 8.96669 54.508 8.18869C52.502 12.1827 50.655 16.2557 48.674 20.2627C48.218 21.1437 47.302 21.7907 46.302 21.8447C45.136 21.9117 43.97 21.8547 42.806 21.8687C45.286 16.5497 47.827 11.2527 50.361 5.95869C51.181 4.21469 52.406 2.61469 54.092 1.63969C55.026 1.09569 55.974 0.570688 56.965 0.136688V0.136688Z" fill="#0B1560"/>
<path d="M91.36 0.136676C92.052 -0.207324 92.858 0.164676 93.249 0.780676C96.415 5.12768 99.597 9.46868 102.793 13.7967C103.151 14.2777 103.415 14.8187 103.681 15.3527C105.929 10.8747 108.032 6.31968 110.234 1.81568C110.695 0.832676 111.704 0.182676 112.771 0.0696765C113.916 -0.0283235 115.066 0.0476765 116.212 0.0166765C112.733 7.31968 109.181 14.5877 105.661 21.8747C103.868 21.8447 102.071 21.9117 100.276 21.8447C99.088 21.7827 98.219 20.8507 97.563 19.9527C94.766 16.1837 91.889 12.4747 89.125 8.68068C89.035 8.60868 88.854 8.45868 88.764 8.38768C86.963 12.2357 85.088 16.0467 83.272 19.8877C82.86 20.8307 82.036 21.6687 80.979 21.8097C79.733 21.9407 78.477 21.8337 77.229 21.8807C79.25 17.4017 81.419 12.9817 83.526 8.53768C84.426 6.76668 85.114 4.84068 86.449 3.33068C87.758 1.83268 89.604 0.985676 91.36 0.136676V0.136676Z" fill="#0B1560"/>
<path d="M128.938 0.832641C129.93 0.294641 131.047 0.00464084 132.18 0.0216408C134.578 0.0216408 136.979 0.0196408 139.382 0.0216408C141.125 0.0156408 142.841 0.660641 144.182 1.77164C145.716 2.95364 147.294 4.07864 148.813 5.27864C149.496 5.74764 149.547 6.66264 149.158 7.34764C146.854 12.1946 144.479 17.0096 142.177 21.8596C140.187 21.8596 138.193 21.8866 136.202 21.8536C135.13 21.9276 134.246 20.6816 134.77 19.7116C135.624 17.7146 136.68 15.8066 137.561 13.8206C132.852 13.8096 128.145 13.8176 123.436 13.8176C122.405 15.9046 121.419 18.0166 120.389 20.1046C119.925 21.0766 118.951 21.8266 117.852 21.8446C115.588 21.9046 113.324 21.8306 111.061 21.8786C113.026 17.7436 115.016 13.6216 117 9.49664C117.963 7.46264 119.585 5.76764 121.562 4.69964C124.015 3.39864 126.478 2.11764 128.938 0.832641V0.832641ZM127.549 5.33564C126.536 7.32364 125.624 9.36364 124.621 11.3606C129.337 11.3736 134.049 11.3636 138.765 11.3636C139.712 9.37564 140.674 7.39464 141.644 5.41664C141.796 4.99764 142.163 4.54464 141.937 4.08864C141.568 3.55164 140.875 3.65364 140.318 3.62964C136.984 3.65464 133.65 3.60864 130.318 3.65164C129.151 3.62064 128.04 4.27364 127.549 5.33564V5.33564Z" fill="#0B1560"/>
<path d="M157.174 2.50967C157.614 1.28767 158.597 0.203667 159.952 0.070667C162.233 -0.054333 164.524 0.073667 166.807 0.00866699C163.729 6.65567 160.453 13.2157 157.305 19.8307C156.875 20.8947 155.899 21.7837 154.716 21.8447C152.425 21.9067 150.132 21.8547 147.838 21.8687C150.952 15.4137 154.071 8.96667 157.174 2.50967V2.50967Z" fill="#0B1560"/>
<path d="M177.005 2.32365C178.88 1.45165 180.643 0.05465 182.799 0.03265C185.309 0.01565 187.821 0.0046498 190.33 0.0386498C192.608 0.11665 194.552 1.42665 196.246 2.83265C197.48 3.89165 199.012 4.63965 199.999 5.95765V6.76665C199.421 8.25865 198.746 9.71765 197.999 11.1297C197.158 12.6357 195.324 13.1137 193.73 13.2747C191.094 13.4837 188.449 13.2197 185.814 13.4227C185.888 13.5247 186.04 13.7277 186.114 13.8257C187.627 14.3857 189.824 13.8537 190.739 15.5067C192.02 17.6357 193.301 19.7646 194.601 21.8836C192.027 21.8346 189.449 21.9026 186.872 21.8526C185.888 21.8916 184.966 21.3547 184.472 20.5167C183.288 18.6667 182.23 16.7427 181.078 14.8757C180.638 14.1507 179.956 13.5037 179.078 13.4137C177.597 13.2667 176.106 13.3917 174.622 13.3447C173.534 15.5107 172.507 17.7037 171.434 19.8757C170.979 20.9377 169.988 21.8316 168.785 21.8426C166.518 21.9166 164.254 21.8347 161.988 21.8787C164.104 17.4797 166.147 13.0387 168.356 8.68865C170.134 5.34165 173.89 4.06065 177.005 2.32365V2.32365ZM178.293 5.18165C177.324 7.06265 176.452 8.99365 175.505 10.8847C179.296 10.8787 183.087 10.8967 186.877 10.8747C188.149 10.8777 189.671 10.6157 190.346 9.39565C191.036 8.09665 191.603 6.73365 192.272 5.42465C192.434 4.99865 192.809 4.52765 192.556 4.06165C192.165 3.57165 191.502 3.63365 190.948 3.62665C187.616 3.65165 184.285 3.60465 180.954 3.64865C179.877 3.65465 178.793 4.20465 178.293 5.18165V5.18165Z" fill="#0B1560"/>
</g>
<defs>
<clipPath id="clip0_842_15">
<rect width="199.999" height="21.8837" fill="white"/>
</clipPath>
</defs>
</svg>
