<svg width="151" height="36" viewBox="0 0 151 36" fill="none" xmlns="http://www.w3.org/2000/svg">
<g clip-path="url(#clip0_842_726)">
<path d="M28.0726 0.687988H46.8336C43.9336 12.276 41.1446 23.897 38.2356 35.483H0.203613V35.121L0.206613 35.475C9.47061 23.86 18.7676 12.27 28.0726 0.687988ZM25.9686 7.39299C25.9726 9.88499 25.9626 12.38 25.9746 14.873C23.4916 14.879 21.0076 14.867 18.5236 14.879C18.5366 17.018 18.5366 19.154 18.5236 21.292C21.0076 21.305 23.4916 21.292 25.9746 21.299C25.9626 23.791 25.9726 26.287 25.9686 28.779C28.1256 28.791 30.2796 28.785 32.4356 28.782C32.4236 26.287 32.4356 23.791 32.4296 21.296C34.9226 21.296 37.4146 21.299 39.9086 21.296C39.9046 19.157 39.9046 17.016 39.9086 14.874C37.4156 14.874 34.9236 14.874 32.4296 14.877C32.4356 12.381 32.4236 9.88599 32.4356 7.39099C30.2796 7.38599 28.1246 7.37899 25.9686 7.39299Z" fill="#E60005"/>
<path d="M52.9648 8.46007C54.9338 6.75007 57.6718 6.30307 60.1968 6.38707C62.5308 6.48907 65.0678 7.09207 66.6578 8.93007C67.6378 10.0071 67.9778 11.4711 68.0888 12.8841C66.2528 12.8991 64.4208 12.8931 62.5848 12.8871C62.4858 11.8761 61.9638 10.8261 60.9258 10.5181C59.5728 10.1331 57.7488 10.1901 56.8888 11.4771C56.2618 12.5301 56.9238 13.8561 57.9678 14.3311C60.8988 15.8251 64.5258 16.0861 66.9298 18.5241C69.2458 21.2201 68.7658 25.8701 65.9218 28.0281C63.9018 29.6281 61.1948 29.9911 58.6948 29.8521C56.3428 29.7031 53.8308 29.0861 52.1658 27.3051C51.0288 26.1141 50.5638 24.4441 50.5878 22.8251C52.4178 22.8211 54.2508 22.8251 56.0798 22.8251C56.2208 23.5691 56.3888 24.3671 56.9618 24.9101C57.8678 25.8461 59.2868 25.9731 60.5068 25.7921C61.7398 25.5911 62.8168 24.4571 62.7088 23.1671C62.6758 22.2851 61.9618 21.6321 61.2298 21.2471C58.7178 19.9101 55.6768 19.7671 53.3608 18.0201C50.3538 15.8691 50.1428 10.8541 52.9648 8.46007Z" fill="#E60005"/>
<path d="M114.77 8.48087C116.655 6.81887 119.276 6.35387 121.713 6.37287C124.07 6.44787 126.643 6.95787 128.328 8.74587C129.41 9.83487 129.83 11.3829 129.924 12.8799C128.084 12.9009 126.248 12.9029 124.41 12.8799C124.306 11.9289 123.873 10.9149 122.904 10.5789C121.683 10.1589 120.156 10.1679 119.115 11.0169C118.285 11.6989 118.299 13.0599 119.025 13.8119C119.796 14.6049 120.904 14.8959 121.921 15.2189C124.009 15.8609 126.196 16.4309 127.98 17.7539C131.089 20.0249 131.068 25.1749 128.246 27.6709C126.254 29.4969 123.408 29.9779 120.795 29.8689C118.357 29.7429 115.709 29.1509 113.992 27.2759C112.855 26.0969 112.412 24.4289 112.408 22.8259C114.244 22.8229 116.084 22.8259 117.92 22.8229C118.078 23.5539 118.207 24.3479 118.779 24.8839C119.836 25.9639 121.57 26.0699 122.933 25.6249C124.421 25.1139 125.163 22.9709 123.913 21.8419C122.692 20.7919 121.063 20.4369 119.573 19.9409C117.509 19.3409 115.29 18.5869 113.964 16.7809C112.206 14.3209 112.446 10.5079 114.77 8.48087Z" fill="#E60005"/>
<path d="M134.755 8.36992C136.995 6.55292 140.062 6.18592 142.851 6.46492C144.984 6.66292 147.238 7.43092 148.58 9.19392C149.418 10.2389 149.699 11.5859 149.799 12.8829C147.971 12.9009 146.145 12.8799 144.319 12.8949C144.135 12.2289 144.026 11.4699 143.452 11.0109C142.427 10.1589 140.909 10.1649 139.7 10.5729C138.72 10.8949 138.104 12.0109 138.434 13.0099C138.76 14.0639 139.852 14.5699 140.815 14.9059C143.194 15.7109 145.756 16.2179 147.821 17.7319C150.964 19.9879 150.942 25.1949 148.098 27.6889C146.166 29.4499 143.424 29.9449 140.889 29.8769C138.489 29.7779 135.907 29.2729 134.112 27.5559C132.817 26.3529 132.249 24.5559 132.274 22.8239C134.106 22.8269 135.938 22.8269 137.768 22.8239C137.913 23.9969 138.528 25.1829 139.7 25.5969C141.104 26.0619 142.981 26.0349 143.942 24.7339C144.727 23.7669 144.508 22.2029 143.422 21.5509C140.779 19.8469 137.315 19.8979 134.848 17.8459C131.991 15.5859 131.933 10.6819 134.755 8.36992Z" fill="#E60005"/>
<path d="M68.8066 6.90688C70.6996 6.90288 72.5916 6.91288 74.4846 6.90088C75.7366 11.8579 76.9906 16.8169 78.1976 21.7879C79.6666 16.8329 81.0826 11.8619 82.5476 6.90288C84.4146 6.90688 86.2836 6.90688 88.1526 6.90688C89.6316 11.8459 90.9806 16.8289 92.5356 21.7479C93.6816 16.7869 94.9866 11.8619 96.1856 6.91288C98.0816 6.90288 99.9866 6.90288 101.883 6.90988C99.8206 14.3479 97.7846 21.7929 95.7006 29.2229C93.7186 29.2199 91.7376 29.2159 89.7556 29.2229C88.2696 24.1489 86.7946 19.0669 85.3646 13.9729C83.8466 19.0419 82.4326 24.1449 80.9386 29.2199C78.9616 29.2229 76.9836 29.2069 75.0056 29.2289C72.8726 21.8089 70.9116 14.3349 68.8066 6.90688Z" fill="#E60005"/>
<path d="M104.103 29.223C104.082 21.785 104.101 14.345 104.095 6.90698C106.023 6.90698 107.954 6.90698 109.886 6.90698C109.88 14.345 109.898 21.784 109.876 29.22C107.953 29.22 106.027 29.216 104.103 29.223Z" fill="#E60005"/>
<path d="M25.9684 7.39303C28.1254 7.38003 30.2794 7.38603 32.4354 7.38903C32.4234 9.88503 32.4354 12.38 32.4294 14.876C34.9224 14.873 37.4144 14.873 39.9084 14.873C39.9044 17.016 39.9044 19.157 39.9084 21.295C37.4154 21.298 34.9234 21.295 32.4294 21.295C32.4354 23.79 32.4234 26.286 32.4354 28.781C30.2794 28.784 28.1244 28.79 25.9684 28.777C25.9724 26.286 25.9624 23.79 25.9744 21.298C23.4914 21.291 21.0074 21.304 18.5234 21.291C18.5364 19.152 18.5364 17.018 18.5234 14.878C21.0074 14.866 23.4914 14.878 25.9744 14.872C25.9624 12.38 25.9724 9.88403 25.9684 7.39303Z" fill="white"/>
</g>
<defs>
<clipPath id="clip0_842_726">
<rect width="150" height="34.795" fill="white" transform="translate(0.203613 0.64209)"/>
</clipPath>
</defs>
</svg>
