<svg width="60" height="17" viewBox="0 0 60 17" fill="none" xmlns="http://www.w3.org/2000/svg">
<path d="M57.3499 7.61872V5.00701H54.7382V7.61872H53.3018V1.42896H54.7382V3.88397H57.3499V1.42896H58.7864V7.61872H57.3499Z" fill="black"/>
<path d="M26.5317 1.42896V5.2943C26.5317 5.71217 26.584 6.10393 26.7146 6.39122C26.8451 6.67851 27.028 6.93968 27.2369 7.1225C27.472 7.30532 27.7592 7.46202 28.0727 7.54037C28.3861 7.61872 28.7517 7.67096 29.1696 7.67096C29.5613 7.67096 29.927 7.61872 30.2404 7.54037C30.5538 7.46202 30.815 7.30532 31.0239 7.1225C31.2328 6.93968 31.4156 6.67851 31.5201 6.39122C31.6507 6.07781 31.7029 5.71217 31.7029 5.2943V1.42896H30.371V5.26818C30.371 5.65994 30.2665 5.97334 30.0837 6.2084C29.9009 6.44345 29.5874 6.57404 29.1696 6.57404C28.7517 6.57404 28.4383 6.44345 28.2555 6.2084C28.0727 5.97334 27.9682 5.65994 27.9682 5.26818V1.42896H26.5317Z" fill="black"/>
<path d="M22.4051 7.61872V2.57811H20.7336V1.42896H25.5392V1.97742C25.5392 2.31694 25.278 2.57811 24.9385 2.57811H23.8416V7.61872H22.4051Z" fill="black"/>
<path d="M45.3882 1.42896H46.8246V7.61872H45.3882V1.42896Z" fill="black"/>
<path d="M40.6349 4.71972L40.6872 4.77195L42.5154 7.1225C42.7504 7.40979 43.0899 7.59261 43.4817 7.59261H44.6309L42.0191 4.24961L41.993 4.19737L42.0191 4.14514L44.1607 1.42896H42.6721L40.6872 4.09291L40.6349 4.14514V4.04067V1.42896H39.1985V7.61872H40.6349V4.82419V4.71972Z" fill="black"/>
<path d="M37.3442 7.61872C36.9264 7.61872 36.5085 7.38367 36.2996 7.04415L35.1765 5.21594H34.4714V7.64484H33.0349V1.42896H35.5944C36.2473 1.42896 36.7697 1.61178 37.1092 1.92518C37.4748 2.2647 37.6576 2.73481 37.6576 3.28327C37.6576 3.57056 37.5793 3.85785 37.4226 4.14514C37.2659 4.43243 37.0047 4.66748 36.6391 4.8503L36.5607 4.87642L38.3106 7.59261H37.3442V7.61872ZM34.4714 4.24961H35.3071C35.5944 4.24961 35.8294 4.17126 35.9862 4.01455C36.1429 3.85785 36.2212 3.64891 36.2212 3.38774C36.2212 3.12657 36.1429 2.91763 36.0123 2.76093C35.8556 2.60423 35.6466 2.52588 35.3332 2.52588H34.4975V4.24961H34.4714Z" fill="black"/>
<path d="M48 7.35753V6.18226C48.444 6.39119 49.0447 6.60013 49.6454 6.60013C50.3505 6.60013 50.6901 6.36508 50.6901 5.89497C50.6901 5.34651 50.22 5.29427 49.2536 4.8764C48.6007 4.58911 48 4.14512 48 3.10043C48 1.89904 48.9141 1.32446 50.1938 1.32446C50.8729 1.32446 51.4475 1.48117 51.7609 1.61175V2.76091C51.4475 2.6042 50.8729 2.42138 50.2722 2.42138C49.6454 2.42138 49.3581 2.65644 49.3581 3.0482C49.3581 3.46607 49.7237 3.59666 50.3505 3.83171C51.1602 4.24959 52.1265 4.43241 52.1265 5.81661C52.1265 7.018 51.1602 7.67093 49.8804 7.67093C49.123 7.69705 48.4962 7.56647 48 7.35753" fill="black"/>
<path d="M50.2461 15.689V9.49927H54.1114V10.0477C54.1114 10.3873 53.8503 10.6484 53.5107 10.6484H51.6564V11.9804H53.7458V13.0251H51.6564V14.5399H54.1114V15.689H50.2461Z" fill="black"/>
<path d="M36.0906 15.689V9.49927H36.7957C37.2136 9.49927 37.527 9.83879 37.527 10.2305V14.566H39.7992V15.689H36.0906Z" fill="black"/>
<path d="M27.2368 15.689V9.49927H28.6733V15.689H27.2368Z" fill="black"/>
<path d="M34.2625 15.689C33.8446 15.689 33.4267 15.454 33.2178 15.1145L32.0947 13.2863H31.3896V15.7152H29.9531V9.49927H32.5126C33.1655 9.49927 33.6879 9.68209 34.0274 9.99549C34.393 10.335 34.5759 10.8051 34.5759 11.3536C34.5759 11.6409 34.4975 11.9282 34.3408 12.2416C34.1841 12.5289 33.9229 12.7639 33.5573 12.9467L33.4789 12.9729L35.2288 15.689H34.2625ZM31.4157 12.3199H32.2514C32.5648 12.3199 32.7738 12.2416 32.9305 12.0849C33.0872 11.9282 33.1655 11.7192 33.1655 11.4581C33.1655 11.1969 33.0872 10.9879 32.9566 10.8312C32.7999 10.6745 32.591 10.5962 32.2776 10.5962H31.4418L31.4157 12.3199Z" fill="black"/>
<path d="M24.1029 9.49927H22.4575L20.1331 15.689H21.1516C21.4128 15.689 21.6479 15.5323 21.7262 15.2712L21.9613 14.5399H24.4685L24.8341 15.689H26.3751L24.1029 9.49927ZM22.3269 13.443L22.8754 11.8759C23.0059 11.5364 23.1365 11.1446 23.2149 10.8835H23.241C23.3194 11.1708 23.4499 11.5103 23.5544 11.8759L24.1029 13.443H22.3269Z" fill="black"/>
<path d="M55.2607 15.4278V14.2526C55.7047 14.4615 56.3054 14.6704 56.9061 14.6704C57.6113 14.6704 57.9508 14.4354 57.9508 13.9653C57.9508 13.4168 57.4807 13.3646 56.5144 12.9467C55.8614 12.6594 55.2607 12.2154 55.2607 11.1707C55.2607 9.96935 56.1748 9.39478 57.4546 9.39478C58.1336 9.39478 58.7082 9.55148 59.0216 9.68206V10.8312C58.7082 10.6745 58.1336 10.4917 57.5329 10.4917C56.9061 10.4917 56.6188 10.7268 56.6188 11.1185C56.6188 11.5364 56.9845 11.667 57.6113 11.902C58.4209 12.3199 59.3873 12.5027 59.3873 13.8869C59.3873 15.0883 58.4209 15.7412 57.1412 15.7412C56.3838 15.7674 55.757 15.6368 55.2607 15.4278" fill="black"/>
<path d="M43.4817 9.49927H44.3697C44.7875 9.49927 45.1793 9.7082 45.4144 10.0738L47.1381 12.8423C47.3209 13.1557 47.556 13.5474 47.6866 13.8347H47.7127C47.6866 13.5474 47.6866 13.1818 47.6866 12.8945V9.49927H48.9402V15.689H47.3731L45.2838 12.346C45.101 12.0326 44.892 11.667 44.7353 11.3797H44.7092C44.7092 11.6409 44.7353 11.9543 44.7353 12.2677V15.689H43.4817V9.49927Z" fill="black"/>
<path d="M40.7395 9.49927H42.1759V15.689H40.7395V9.49927Z" fill="black"/>
<path d="M9.37279 0.697742C13.3426 1.11562 16.4505 4.45861 16.4505 8.55901C16.4505 12.9206 12.9247 16.4464 8.56316 16.4464C4.20159 16.4464 0.649658 12.9206 0.649658 8.55901C0.649658 4.19744 4.17548 0.645508 8.56316 0.645508C8.82433 0.645508 9.11162 0.671625 9.37279 0.697742ZM9.79067 15.8979C13.8388 15.2189 16.5811 11.3797 15.9021 7.30538C15.3275 3.93627 12.5852 1.48126 9.34667 1.14173C8.69374 1.06338 8.0147 1.0895 7.33565 1.19397C6.52602 1.32455 5.76862 1.58573 5.08958 1.95137C8.64151 3.17887 10.5742 5.03319 10.7048 6.91363C10.7831 8.0889 10.2347 8.92465 9.50338 9.60369L14.5701 9.26417C14.7007 9.26417 14.7529 9.42087 14.5962 9.47311L2.50398 12.9206C3.73148 14.6182 5.63804 15.7412 7.75353 15.9502C8.43257 16.0285 9.11162 16.0285 9.79067 15.8979ZM6.47379 8.71571C7.12671 6.23458 6.36932 3.62286 4.56723 2.23865C2.11222 3.80568 0.675775 6.73081 1.19812 9.78652C1.35482 10.8051 1.72046 11.7192 2.24281 12.5288C4.17548 12.0065 5.87309 10.9879 6.47379 8.71571" fill="white"/>
<path d="M9.79067 15.8979C13.8388 15.2189 16.5811 11.3797 15.9021 7.3054C15.3275 3.93629 12.5852 1.48127 9.34668 1.14175C8.69375 1.0634 8.0147 1.08951 7.33565 1.19398C6.52602 1.32457 5.76862 1.58574 5.08958 1.95138C8.64151 3.17889 10.5742 5.03321 10.7048 6.91364C10.7831 8.08891 10.2347 8.92466 9.50338 9.60371L14.5701 9.26419C14.7007 9.26419 14.7529 9.42089 14.5962 9.47312L2.50398 12.9206C3.73149 14.6182 5.63804 15.7412 7.75353 15.9502C8.43257 16.0285 9.11162 16.0285 9.79067 15.8979ZM6.47379 8.71573C7.12672 6.2346 6.36932 3.62288 4.56723 2.23867C2.11222 3.8057 0.675777 6.73082 1.19812 9.78653C1.35482 10.8051 1.72046 11.7192 2.24281 12.5288C4.17548 12.0065 5.87309 10.9879 6.47379 8.71573V8.71573Z" fill="#C70A0C"/>
</svg>
