<svg width="149" height="42" viewBox="0 0 149 42" fill="none" xmlns="http://www.w3.org/2000/svg">
<path d="M148.221 0.0103753C145.637 2.59838 142.849 2.92371 140.329 3.24771L139.09 3.40504C137.738 3.54771 136.585 3.63571 135.293 4.47971C134.001 5.25304 132.501 7.00504 131.478 8.29971C127.464 9.01171 124.126 10.3064 121.27 11.8637C116.233 14.7144 112.761 18.4704 110.177 21.2557L107.658 24.2344L108.133 24.1037C112.761 19.765 117.116 16.6544 121.27 14.7797C123.856 13.549 126.374 12.833 128.824 12.5757H128.894L131.546 9.07571C132.228 8.43038 133.249 8.16904 134.746 8.04104L137.405 7.84771L139.646 7.71838L140.397 7.65171C142.165 7.39171 143.662 7.00504 145.774 4.15304L148.565 0.266375L148.221 0.0103753ZM129.51 10.953C129.51 10.953 128.761 11.9904 128.618 12.121C126.24 12.445 123.79 13.1597 121.27 14.2584C118.072 15.7464 114.805 17.821 111.4 20.6717C113.785 18.0797 116.913 14.905 121.27 12.445C123.996 10.8904 127.258 9.59171 131.14 8.88371C130.868 9.14104 129.51 10.953 129.51 10.953V10.953ZM145.368 3.89438C143.393 6.61438 142.026 7.00504 140.329 7.19971L139.646 7.26371L137.337 7.39171L134.677 7.58504C133.59 7.71838 132.774 7.91038 132.088 8.29971C132.981 7.19971 134.338 5.58238 135.494 4.80104C136.722 4.02504 138.152 3.95971 139.032 3.82904L139.577 3.76637H139.646L140.397 3.70104C142.508 3.44104 144.889 3.05304 147.205 1.36638C146.388 2.53438 145.368 3.89438 145.368 3.89438" fill="black"/>
<path d="M107.933 23.9757L106.298 25.6597C114.602 19.5703 119.363 19.0543 126.239 19.1156C126.851 19.1823 127.463 19.1823 127.871 18.4049L129.914 15.5543C120.318 15.6849 116.027 18.017 107.933 23.9757Z" fill="url(#paint0_linear_842_102)"/>
<path d="M108.367 23.4877C108.366 23.501 108.362 23.513 108.359 23.5264C116.266 16.2904 122.983 13.0237 128.802 12.325C129.343 11.677 131.139 9.27175 131.681 8.49308C118.535 10.6824 112.501 19.3944 108.367 23.4877Z" fill="url(#paint1_linear_842_102)"/>
<path d="M108.337 23.5224C108.233 23.6237 107.966 23.9357 107.717 24.173C107.638 24.241 107.495 24.4184 107.489 24.4304C109.018 23.2158 112.129 20.8584 114.975 19.3064C117.807 17.7611 121.263 16.4837 126.171 15.8131C126.647 15.2944 128.118 13.3344 128.802 12.2997C119.746 13.5957 113.783 18.6624 108.337 23.5224" fill="url(#paint2_linear_842_102)"/>
<path d="M125.625 16.4609C125.354 17.1715 125.761 16.8489 126.989 17.5649C127.943 18.1435 127.737 18.4049 127.666 18.7275C128.551 17.3689 130.253 15.4889 130.253 15.4889C129.826 15.3435 129.37 15.2835 128.915 15.2835C127.338 15.2835 125.783 16.0089 125.625 16.4609" fill="url(#paint3_linear_842_102)"/>
<path d="M134.818 7.65169C132.907 7.84769 131.753 8.3624 131.003 9.27173L128.451 12.7917C129.061 12.2757 130.73 11.9904 132.571 11.9904H132.841H133.042C133.317 11.9904 133.59 11.9264 133.858 11.9264C136.515 11.865 140.122 11.4731 142.302 8.94775L145.469 4.57039L145.819 4.07707C143.03 7.7024 136.79 7.32769 134.818 7.65169Z" fill="url(#paint4_linear_842_102)"/>
<path d="M147.9 0.634441C145.12 3.07044 142.138 3.20376 139.577 3.56909C138.762 3.70243 136.926 3.6358 135.425 4.60913C133.858 5.58113 131.964 7.95049 131.074 9.18115C131.896 8.27582 133.116 7.97712 134.746 7.77979C136.385 7.58512 138.697 7.65176 140.397 7.39176C142.026 7.19976 143.529 6.87578 145.57 4.02645L148.066 0.634441H147.9Z" fill="url(#paint5_linear_842_102)"/>
<path d="M136.311 11.5369C134.338 11.7983 132.087 11.8649 131.413 11.9263C130.325 11.9263 128.823 12.3143 128.419 12.833C127.125 14.389 125.97 15.8129 125.625 16.4609C126.374 15.7463 128.894 15.813 131.961 15.685C135.018 15.5543 138.082 14.1929 140.531 11.4089L142.39 8.80493C141.163 10.4236 138.969 11.1476 136.311 11.5369Z" fill="url(#paint6_linear_842_102)"/>
<path d="M5.76695 29.3582L4.61361 28.8542L9.40028 28.2702C9.48561 28.4089 9.56828 28.5316 9.66428 28.6596L5.76695 29.3582ZM18.6163 29.3582L19.7709 28.8222L15.0109 28.2556C14.9696 28.4089 14.8429 28.5316 14.7576 28.6596L18.6163 29.3582ZM17.9216 29.4382L16.4709 29.9236L14.4096 29.2996L14.2309 29.2422C14.2989 29.1876 14.3563 29.1342 14.4096 29.0609C14.4963 28.9929 14.5656 28.8942 14.6469 28.8222L17.9216 29.4382ZM21.7483 28.0889L20.4243 28.7022L15.1349 28.0889C15.1789 27.9636 15.2203 27.8382 15.2589 27.7102L21.7483 28.0889ZM22.2203 27.9049L23.9483 26.8076H14.5949C14.5949 27.1982 14.5376 27.5342 14.4096 27.8222C14.0509 28.7556 13.1456 29.2022 12.2416 29.1876C11.3523 29.1622 10.4456 28.7022 10.0429 27.8516C9.90161 27.5422 9.81895 27.2142 9.81895 26.8076H0.436279L2.14695 27.9049L9.31628 27.5342C9.45495 28.0449 9.70961 28.4916 10.0429 28.8222C10.6136 29.4249 11.4323 29.7556 12.2416 29.7556C13.0363 29.7742 13.8403 29.4796 14.4096 28.8396C14.7176 28.5062 14.9536 28.0742 15.0949 27.5569L22.2203 27.9049ZM14.4096 30.7476L14.0243 29.9942C14.2016 29.8942 14.2989 29.7849 14.4096 29.6742C14.4669 29.6302 14.5109 29.5916 14.5656 29.5502L14.4096 29.4929L14.0349 29.3809C13.4629 29.7849 12.8549 29.9796 12.2416 29.9649C11.6283 29.9649 11.0029 29.7742 10.4309 29.4249L10.0949 29.8276C10.2083 29.9382 10.3189 29.9942 10.4456 30.0782L10.0429 30.8022L9.87361 31.0809C9.90161 31.1796 9.97095 31.2476 10.0429 31.2889C10.1803 31.3902 10.3883 31.4022 10.5429 31.3902L11.0136 30.3289C11.3896 30.4516 11.8229 30.5116 12.2416 30.4942C12.6336 30.4809 13.0203 30.4102 13.3696 30.2889L13.9256 31.3902L14.4096 31.1676L14.5949 31.0809L14.4096 30.7476ZM14.4096 25.0529C14.7723 25.4822 15.0389 26.0142 15.1789 26.6276H14.5816C14.5376 26.4462 14.4816 26.2636 14.4096 26.0982C14.0109 25.0409 13.1869 24.2889 12.2416 23.6609C12.1163 23.5902 12.0029 23.5089 11.8789 23.4396C12.0029 23.4809 12.1163 23.5222 12.2416 23.5649C13.1016 23.9116 13.8683 24.3862 14.4096 25.0529ZM12.7949 28.9782L11.9069 27.1009L11.2269 27.4049L10.8056 26.4582L12.2416 25.8049L12.5749 25.6542L13.4083 26.3769L12.4203 26.8489L13.3696 28.7276C13.1869 28.8662 12.9523 28.9529 12.7949 28.9782ZM10.2083 29.2422C10.1523 29.2022 10.0949 29.1476 10.0429 29.1036C9.92961 29.0062 9.83095 28.9076 9.76561 28.8102L6.49228 29.4276L7.88561 29.8942L10.2083 29.2422ZM9.31628 28.0889C9.26161 27.9636 9.22161 27.8382 9.17761 27.7102L2.63495 28.0889L3.95895 28.7276L9.31628 28.0889Z" fill="#004A93"/>
<path d="M50.4269 38.8181C52.5842 39.1581 56.7189 39.6914 61.7829 39.8021C66.8349 39.9287 72.7749 39.6341 78.3882 38.7954C84.0002 37.9807 89.2616 36.6127 92.9989 35.1367C96.7629 33.7181 98.8696 31.9914 98.8589 31.9821C98.8789 31.9941 96.6869 33.9927 92.6989 35.7087C88.7496 37.4901 83.1789 39.1994 77.3109 40.3007C71.4482 41.4354 65.3002 41.9541 60.2976 41.9847C55.2976 42.0421 51.4136 41.5927 50.0522 41.3781C45.3469 40.6767 41.9296 39.4394 39.8442 38.2487C37.7389 37.0474 37.0376 35.9634 37.2562 35.7514C37.4896 35.5021 38.5376 36.0087 40.6602 36.6647C42.7869 37.3327 46.0229 38.1634 50.4269 38.8181Z" fill="#EE7203"/>
<path d="M26.7565 19.1055V17.5708H20.7018V14.6815H26.1458V13.1628H20.7018V10.5335H26.4391V9.01614H16.6685V19.1055H26.7565Z" fill="#004A93"/>
<path d="M32.6597 19.1055V10.5335H35.0303C35.7517 10.5335 36.4197 10.5881 37.0277 10.9948C37.4703 11.3081 37.7477 11.7575 37.7477 12.3135C37.7477 12.7775 37.5837 13.2561 36.973 13.6428C36.1757 14.1615 34.7903 14.2335 33.9183 14.1268L33.421 14.0681L37.4383 19.1055H42.0997L38.2863 14.9001C38.9703 14.8255 40.0663 14.5548 40.7303 14.1268C41.525 13.5881 41.933 12.7935 41.933 12.0495C41.933 11.2188 41.485 10.3135 40.4717 9.7188C39.2677 9.0348 37.621 9.01614 36.1023 9.01614H28.6077V19.1055H32.6597Z" fill="#004A93"/>
<path d="M65.2353 19.1055V14.8468H70.6779V13.3281H65.2353V10.5335H71.1219V9.01614H61.2046V19.1055H65.2353Z" fill="#004A93"/>
<path d="M76.6389 9.01589H72.5842V19.1052H82.5829V17.5706H76.6389V9.01589Z" fill="#004A93"/>
<path d="M99.2405 10.5342H103.59V19.1062H107.644V10.5342H111.991V9.01554H99.2405V10.5342Z" fill="#004A93"/>
<path d="M90.6535 8.72148C88.7655 8.72148 86.1175 9.14815 84.3402 10.4215C82.9308 11.4215 82.2668 12.8508 82.2668 14.0681C82.2668 15.2735 82.9308 16.7001 84.3402 17.6988C86.1175 18.9548 88.7655 19.3828 90.6535 19.3828C92.5402 19.3828 95.2042 18.9548 96.9802 17.6988C98.3882 16.7001 99.0375 15.2735 99.0375 14.0681C99.0375 12.8508 98.3882 11.4215 96.9802 10.4215C95.2042 9.14815 92.5402 8.73881 90.6535 8.72148ZM90.6535 18.1615C89.6522 18.1615 88.4668 17.9388 87.5962 16.8455C86.8748 15.9588 86.7455 14.9375 86.7455 14.0681C86.7455 13.1628 86.8748 12.1615 87.5962 11.2735C88.4668 10.1615 89.6522 9.94148 90.6535 9.94148C91.6682 9.94148 92.8388 10.1615 93.7228 11.2735C94.4455 12.1615 94.5762 13.1628 94.5762 14.0681C94.5762 14.9375 94.4455 15.9588 93.7228 16.8455C92.8388 17.9388 91.6682 18.1615 90.6535 18.1615Z" fill="#004A93"/>
<path d="M51.4204 8.72148C49.5337 8.72148 46.887 9.14815 45.111 10.4215C43.7004 11.4215 43.0337 12.8508 43.0337 14.0681C43.0337 15.2735 43.7004 16.7001 45.111 17.6988C46.887 18.9548 49.5337 19.3828 51.4204 19.3828C53.3057 19.3828 55.9737 18.9548 57.7524 17.6988C59.1577 16.7001 59.807 15.2735 59.807 14.0681C59.807 12.8508 59.1577 11.4215 57.7524 10.4215C55.9737 9.14815 53.3057 8.73881 51.4204 8.72148ZM51.4204 18.1615C50.4204 18.1615 49.235 17.9388 48.367 16.8455C47.6457 15.9588 47.5137 14.9375 47.5137 14.0681C47.5137 13.1628 47.6457 12.1615 48.367 11.2735C49.235 10.1615 50.4204 9.94148 51.4204 9.94148C52.435 9.94148 53.6057 10.1615 54.4924 11.2735C55.215 12.1615 55.3444 13.1628 55.3444 14.0681C55.3444 14.9375 55.215 15.9588 54.4924 16.8455C53.6057 17.9388 52.435 18.1615 51.4204 18.1615Z" fill="#004A93"/>
<path d="M2.45239 19.1055L4.04439 16.1748H9.65506L11.3751 19.1055H15.9084L9.76572 9.01614H6.00706L0.435059 19.1055H2.45239ZM4.78439 14.8095L6.69106 11.2935H6.74839L8.81906 14.8095H4.78439Z" fill="#004A93"/>
<path d="M42.8967 27.1902L41.9967 30.5035C41.8874 30.6368 41.714 30.7475 41.5567 30.8302C41.3167 30.9608 41.0767 31.0315 40.854 31.0315C40.6354 31.0315 40.4394 30.9422 40.3487 30.8088C40.2847 30.6982 40.2194 30.5235 40.3074 30.2142L41.1194 27.1902H40.2847L39.4967 30.1075C39.43 30.3702 39.3207 30.8302 39.5607 31.1822C39.694 31.3808 39.9794 31.6008 40.5674 31.6008C40.8114 31.6008 41.054 31.5582 41.3634 31.4248C41.5567 31.3102 41.7754 31.1822 41.9527 31.0488L41.822 31.5128H42.5674L43.734 27.1902H42.8967Z" fill="#004A93"/>
<path d="M48.2383 27.6907C48.0396 27.4293 47.7969 27.2973 47.7529 27.2747C47.4729 27.124 47.1636 27.0987 46.8956 27.0987C46.6116 27.0987 46.2596 27.124 45.8676 27.3627C45.5809 27.5627 45.2316 27.8667 45.1023 28.3733C44.9849 28.7467 45.0329 29.0293 45.1663 29.2067C45.3169 29.4067 45.5809 29.512 45.8036 29.5787L46.2183 29.7133C46.4356 29.7587 46.6569 29.7587 46.7876 29.9293C46.8543 30.02 46.9236 30.1307 46.8769 30.348C46.8103 30.5453 46.6823 30.676 46.5689 30.7653C46.4169 30.8987 46.1516 31.0107 45.7809 31.0107C45.5396 31.0107 45.3409 30.9613 45.1436 30.852C44.9703 30.7213 44.8369 30.6107 44.7689 30.504L44.2183 31.0107C44.6156 31.532 45.1023 31.6013 45.5809 31.6013C45.9089 31.6013 46.5689 31.5587 47.1183 31.14C47.4236 30.8787 47.6449 30.5453 47.7343 30.2613C47.7783 30.0373 47.8223 29.7133 47.7129 29.512C47.5569 29.2067 47.2076 29.0773 47.0076 29.0293L46.7009 28.9427C46.3089 28.8547 46.1316 28.8107 46.0423 28.7C45.9569 28.6373 45.8889 28.5053 45.9569 28.2413C45.9969 28.1333 46.0889 27.9547 46.2596 27.8227C46.4796 27.6907 46.6823 27.6693 46.8343 27.6693C47.0303 27.6693 47.2076 27.716 47.3609 27.8227C47.4929 27.9107 47.6009 28.0213 47.6903 28.1333L48.2383 27.6907Z" fill="#004A93"/>
<path d="M52.7395 27.6907C52.5622 27.4293 52.3222 27.2973 52.2582 27.2747C51.9955 27.124 51.6835 27.0987 51.4235 27.0987C51.1208 27.0987 50.7875 27.124 50.3915 27.3627C50.1048 27.5627 49.7542 27.8667 49.5995 28.3733C49.5182 28.7467 49.5582 29.0293 49.6888 29.2067C49.8435 29.4067 50.1315 29.512 50.3248 29.5787L50.7182 29.7133C50.9382 29.7587 51.1608 29.7587 51.3128 29.9293C51.3795 30.02 51.4448 30.1307 51.3795 30.348C51.3128 30.5453 51.1835 30.676 51.0928 30.7653C50.9382 30.8987 50.6782 31.0107 50.3035 31.0107C50.0622 31.0107 49.8662 30.9613 49.6448 30.852C49.4688 30.7213 49.3582 30.6107 49.2715 30.504L48.7222 31.0107C49.1448 31.532 49.6248 31.6013 50.1048 31.6013C50.4382 31.6013 51.0928 31.5587 51.6435 31.14C51.9502 30.8787 52.1702 30.5453 52.2355 30.2613C52.3022 30.0373 52.3222 29.7133 52.2142 29.512C52.0822 29.2067 51.7302 29.0773 51.5128 29.0293L51.2035 28.9427C50.8275 28.8547 50.6568 28.8107 50.5648 28.7C50.4808 28.6373 50.4155 28.5053 50.4808 28.2413C50.5235 28.1333 50.5888 27.9547 50.7875 27.8227C50.9862 27.6907 51.2035 27.6693 51.3342 27.6693C51.5568 27.6693 51.7302 27.716 51.8848 27.8227C52.0182 27.9107 52.1248 28.0213 52.2142 28.1333L52.7395 27.6907Z" fill="#004A93"/>
<path d="M54.3503 27.1903L54.193 27.7583H54.6983L53.6917 31.5129H54.5223L55.6863 27.1903H54.3503ZM54.877 25.7636C54.8063 26.0689 54.9863 26.3103 55.2743 26.3103C55.581 26.3103 55.8623 26.0689 55.9503 25.7636C56.0357 25.4756 55.8623 25.2343 55.5543 25.2343C55.2743 25.2343 54.965 25.4756 54.877 25.7636Z" fill="#004A93"/>
<path d="M62.5025 31.5127L63.4252 28.11C63.7159 27.8674 64.1532 27.67 64.5465 27.67C64.8319 27.67 64.9879 27.778 65.0505 27.91C65.1839 28.11 65.1185 28.4367 65.0719 28.57L64.2825 31.5127H65.1185L65.9065 28.6367C65.9972 28.2834 66.0372 27.8674 65.8412 27.5167C65.6652 27.2327 65.3385 27.0994 64.8745 27.0994C64.5932 27.0994 64.1092 27.1647 63.5799 27.5167L63.6692 27.19H62.3265L62.1759 27.758H62.6799L61.6719 31.5127H62.5025Z" fill="#004A93"/>
<path d="M35.0475 25.2798L33.3582 31.5132H34.3008L35.0315 28.7718H35.6635L36.5422 31.5132H36.6088H37.6808L36.6728 28.7238C37.1355 28.6758 37.7502 28.4598 38.1208 28.1758C38.5355 27.8678 38.8488 27.4292 38.9528 26.9692C39.0862 26.5265 39.0235 26.0692 38.7622 25.7638C38.4088 25.3225 37.7062 25.2798 37.1995 25.2798H36.6088H35.0475ZM36.6088 28.0625H36.4542H35.2262L35.7768 26.0012H36.6088H37.0275C37.1608 26.0012 37.5742 26.0012 37.7942 26.2212C37.9248 26.3545 38.0355 26.5732 37.9448 26.9238C37.8582 27.2532 37.6808 27.5172 37.4208 27.7358C37.1355 27.9545 36.8275 28.0452 36.6088 28.0625Z" fill="#004A93"/>
<path d="M58.4395 28.9886C57.5635 29.0766 56.8368 29.4273 56.5968 30.3286C56.5742 30.4339 56.5515 30.5233 56.5515 30.6113V30.7646C56.5742 31.2486 56.9022 31.6006 57.6275 31.6006C57.8888 31.6006 58.1515 31.5579 58.4395 31.4419C58.4648 31.4419 58.4848 31.4259 58.5262 31.4033C58.8128 31.2713 59.0288 31.0499 59.0982 30.9846H59.1422L58.9902 31.5126H59.7382L60.5048 28.7246C60.6155 28.2833 60.7222 27.8446 60.4808 27.5166C60.2808 27.2086 59.7795 27.0993 59.3862 27.0993C59.0102 27.0993 58.6822 27.1446 58.4395 27.2086C57.6742 27.4046 57.3862 27.8673 57.3635 28.2833L58.1342 28.3286C58.1955 28.1099 58.2875 27.9553 58.4395 27.8446C58.6168 27.7166 58.8795 27.6699 59.2088 27.6699C59.3862 27.6699 59.6022 27.6913 59.6902 27.8446C59.8248 27.9993 59.7795 28.2193 59.7382 28.4179L59.5808 28.9659H58.9675C58.7888 28.9659 58.5955 28.9659 58.4395 28.9886ZM58.4395 30.9619C58.3075 31.0113 58.1755 31.0313 58.0435 31.0313C57.8702 31.0313 57.6502 31.0113 57.5208 30.8313C57.4102 30.6766 57.3862 30.5233 57.4528 30.3046C57.4968 30.1313 57.5835 29.9539 57.8022 29.7793C57.9328 29.6899 58.1102 29.5793 58.4395 29.5393C58.5488 29.5126 58.6822 29.4926 58.8368 29.4926H59.4528L59.2088 30.4113C59.0768 30.5899 58.9448 30.6979 58.7888 30.8099C58.6608 30.8793 58.5488 30.9419 58.4395 30.9619Z" fill="#004A93"/>
<path d="M78.4875 27.1903L78.3355 27.7583H78.8408L77.8262 31.5129H78.6622L79.8248 27.1903H78.4875ZM79.2582 25.7636C79.1902 26.0689 79.3662 26.3103 79.6542 26.3103C79.9368 26.3103 80.2448 26.0689 80.3315 25.7636C80.4208 25.4756 80.2448 25.2343 79.9368 25.2343C79.6542 25.2343 79.3408 25.4756 79.2582 25.7636Z" fill="#004A93"/>
<path d="M81.6701 27.1903L80.5088 31.5129H81.3448L82.0035 29.0303C82.1115 28.7463 82.2195 28.4609 82.3755 28.2423C82.6381 27.8223 82.9421 27.7583 83.1208 27.7583C83.2315 27.7583 83.3621 27.7783 83.4501 27.8676C83.5115 27.9343 83.5381 28.0623 83.5381 28.2196L84.2848 27.9996C84.4355 27.5623 84.2848 27.3183 84.0235 27.1903C83.8861 27.1249 83.7341 27.0996 83.5808 27.0996C83.0981 27.0996 82.6195 27.3623 82.2861 27.8223L82.4595 27.1903H81.6701Z" fill="#004A93"/>
<path d="M86.2842 25.1919L84.9029 30.3292C84.7962 30.7225 84.5949 31.5132 85.5856 31.5132H86.0669L86.2202 30.9425H85.9816C85.5642 30.9425 85.6722 30.5892 85.6922 30.5039L87.1202 25.1919H86.2842Z" fill="#004A93"/>
<path d="M88.5411 27.1903L88.3944 27.7583H88.9011L87.8638 31.5129H88.7198L89.8851 27.1903H88.5411ZM89.3118 25.7636C89.2438 26.0689 89.4224 26.3103 89.7078 26.3103C90.0171 26.3103 90.3011 26.0689 90.3878 25.7636C90.4544 25.4756 90.2771 25.2343 89.9958 25.2343C89.6851 25.2343 89.4011 25.4756 89.3118 25.7636Z" fill="#004A93"/>
<path d="M91.6105 31.5127L92.5092 28.11C92.8145 27.8674 93.2559 27.67 93.6492 27.67C93.9345 27.67 94.0919 27.778 94.1545 27.91C94.3079 28.11 94.1999 28.4367 94.1772 28.57L93.3892 31.5127H94.2212L95.0092 28.6367C95.0985 28.2834 95.1425 27.8674 94.9439 27.5167C94.7732 27.2327 94.4385 27.0994 93.9799 27.0994C93.6732 27.0994 93.2319 27.1647 92.6852 27.5167L92.7732 27.19H91.4345L91.2799 27.758H91.7825L90.7759 31.5127H91.6105Z" fill="#004A93"/>
<path d="M104.495 27.6907C104.323 27.4293 104.104 27.2973 104.033 27.2747C103.748 27.124 103.468 27.0987 103.201 27.0987C102.891 27.0987 102.564 27.124 102.172 27.3627C101.863 27.5627 101.512 27.8667 101.381 28.3733C101.267 28.7467 101.336 29.0293 101.465 29.2067C101.597 29.4067 101.884 29.512 102.083 29.5787L102.5 29.7133C102.716 29.7587 102.941 29.7587 103.065 29.9293C103.159 30.02 103.201 30.1307 103.159 30.348C103.095 30.5453 102.964 30.676 102.849 30.7653C102.716 30.8987 102.453 31.0107 102.06 31.0107C101.813 31.0107 101.64 30.9613 101.421 30.852C101.247 30.7213 101.119 30.6107 101.051 30.504L100.501 31.0107C100.896 31.532 101.381 31.6013 101.863 31.6013C102.215 31.6013 102.849 31.5587 103.399 31.14C103.708 30.8787 103.923 30.5453 104.013 30.2613C104.08 30.0373 104.104 29.7133 103.996 29.512C103.86 29.2067 103.485 29.0773 103.292 29.0293L102.981 28.9427C102.613 28.8547 102.433 28.8107 102.324 28.7C102.256 28.6373 102.172 28.5053 102.236 28.2413C102.28 28.1333 102.341 27.9547 102.545 27.8227C102.76 27.6907 102.981 27.6693 103.115 27.6693C103.335 27.6693 103.485 27.716 103.66 27.8227C103.772 27.9107 103.88 28.0213 103.969 28.1333L104.495 27.6907Z" fill="#004A93"/>
<path d="M71.0808 31.5127H72.0235L72.9675 29.9967H75.3595L75.4688 31.5127H76.5461L75.9541 25.2794H75.1861L71.0808 31.5127ZM73.4075 29.2727L75.0968 26.618H75.1155L75.3181 29.2727H73.4075Z" fill="#004A93"/>
<path d="M97.1481 29.5387H99.7561L99.8241 29.252C99.9988 28.676 100.172 28.088 99.8695 27.6053C99.6041 27.1907 99.0788 27.1 98.7028 27.1C98.1481 27.1 97.6148 27.2973 97.1895 27.6707C96.6175 28.176 96.3801 28.8547 96.2481 29.4267C96.1161 29.888 95.9828 30.5893 96.3335 31.096C96.6628 31.532 97.2588 31.6013 97.6721 31.6013C98.0095 31.6013 98.3201 31.5533 98.6415 31.4427C98.8148 31.38 99.0335 31.292 99.2308 31.1813L99.1028 30.676C98.9015 30.7653 98.7495 30.8307 98.5295 30.8787C98.3228 30.9147 98.1308 30.9613 97.9121 30.9613C97.5855 30.9613 97.2988 30.852 97.1481 30.6573C96.9055 30.3707 97.0148 29.9293 97.0828 29.7147L97.1481 29.5387ZM97.2775 28.9653L97.3215 28.772C97.4121 28.548 97.5188 28.1973 97.8028 27.9547C97.9868 27.7733 98.2721 27.6707 98.5295 27.6707C98.7495 27.6707 98.9668 27.736 99.0788 27.868C99.2735 28.1333 99.1855 28.5053 99.1028 28.7907L99.0548 28.9653H97.2775Z" fill="#004A93"/>
<defs>
<linearGradient id="paint0_linear_842_102" x1="121.339" y1="4.75218" x2="131.386" y2="14.6594" gradientUnits="userSpaceOnUse">
<stop stop-color="#C00D0D"/>
<stop offset="0.300003" stop-color="#E30613"/>
<stop offset="0.529175" stop-color="#F6B2B6"/>
<stop offset="0.747455" stop-color="#E30613"/>
<stop offset="1" stop-color="#C00D0D"/>
</linearGradient>
<linearGradient id="paint1_linear_842_102" x1="116.309" y1="-4.73107" x2="141.006" y2="13.2128" gradientUnits="userSpaceOnUse">
<stop stop-color="white"/>
<stop offset="0.34" stop-color="white"/>
<stop offset="0.54" stop-color="white"/>
<stop offset="0.91" stop-color="#D3DAF0"/>
<stop offset="1" stop-color="#D3DAF0"/>
</linearGradient>
<linearGradient id="paint2_linear_842_102" x1="121.547" y1="2.80043" x2="134.065" y2="15.1447" gradientUnits="userSpaceOnUse">
<stop stop-color="#004A93"/>
<stop offset="0.12958" stop-color="#004A93"/>
<stop offset="0.462249" stop-color="#899DD0"/>
<stop offset="0.6371" stop-color="#004A93"/>
<stop offset="0.916614" stop-color="#004A93"/>
<stop offset="1" stop-color="#004A93"/>
</linearGradient>
<linearGradient id="paint3_linear_842_102" x1="127.428" y1="11.672" x2="132.804" y2="15.1634" gradientUnits="userSpaceOnUse">
<stop stop-color="#C00D0D"/>
<stop offset="0.5" stop-color="#E30613"/>
<stop offset="1" stop-color="#F6B2B6"/>
</linearGradient>
<linearGradient id="paint4_linear_842_102" x1="136.658" y1="-5.7027" x2="151.56" y2="6.6697" gradientUnits="userSpaceOnUse">
<stop stop-color="#D3DDF2"/>
<stop offset="0.0730286" stop-color="#D3DDF2"/>
<stop offset="0.370789" stop-color="#004A93"/>
<stop offset="0.949432" stop-color="#D3DDF2"/>
<stop offset="1" stop-color="#D3DDF2"/>
</linearGradient>
<linearGradient id="paint5_linear_842_102" x1="139.81" y1="-9.18893" x2="153.85" y2="2.46776" gradientUnits="userSpaceOnUse">
<stop stop-color="white"/>
<stop offset="0.174164" stop-color="white"/>
<stop offset="0.353928" stop-color="#E3E7F6"/>
<stop offset="0.699997" stop-color="white"/>
<stop offset="1" stop-color="white"/>
</linearGradient>
<linearGradient id="paint6_linear_842_102" x1="133.915" y1="-0.403436" x2="146.533" y2="10.0725" gradientUnits="userSpaceOnUse">
<stop stop-color="#F6B2B6"/>
<stop offset="0.0561829" stop-color="#F6B2B6"/>
<stop offset="0.276074" stop-color="#E30613"/>
<stop offset="0.516861" stop-color="#C00D0D"/>
<stop offset="0.6919" stop-color="#E30613"/>
<stop offset="0.891412" stop-color="#F5A9A8"/>
<stop offset="1" stop-color="#F6B2B6"/>
</linearGradient>
</defs>
</svg>
