<svg width="185" height="43" viewBox="0 0 185 43" fill="none" xmlns="http://www.w3.org/2000/svg">
<g clip-path="url(#clip0_842_235)">
<path d="M29.3022 8.15624V0.792236H36.6662V8.15624H29.3022ZM29.3022 42.0902V11.0422H36.6662V42.0902H29.3022Z" fill="#152649"/>
<path d="M47.1152 42.0901H39.7512V11.0421H46.9162V16.8141C49.2042 13.4301 52.4882 10.4451 56.9662 10.4451C57.7632 10.4451 58.2602 10.5451 58.6582 10.6441V17.6101C58.0612 17.5101 56.9662 17.5101 56.4692 17.5101C53.0852 17.5101 47.0152 20.6951 47.0152 26.8651V42.0901H47.1152Z" fill="#152649"/>
<path d="M60.7483 42.0902V0.792236H73.9833C77.4663 0.792236 89.3083 0.792236 89.3083 10.8432C89.3083 17.8092 83.9353 19.6002 81.1483 20.5952C84.3333 21.3912 90.3033 23.0832 90.3033 30.7462C90.3033 37.0152 85.6263 42.0902 74.9783 42.0902H60.7483ZM68.5103 17.6102H73.9833C81.0493 17.6102 81.6463 13.4302 81.6463 12.0372C81.6463 6.86324 76.2723 6.86324 74.6803 6.86324H68.5103V17.6102ZM68.5103 36.0202H73.3863C78.5613 36.0202 82.2433 34.3282 82.2433 29.8502C82.2433 26.9642 80.6513 23.5812 73.8843 23.5812H68.5103V36.0202Z" fill="#152649"/>
<path d="M111.201 42.0901L110.405 38.8061C108.614 40.3981 105.628 42.7871 101.051 42.7871C95.4783 42.7871 91.4983 39.2041 91.4983 34.2291C91.4983 31.0441 92.6923 27.2631 99.4593 24.8741L108.315 21.8891C109.609 21.4911 109.709 21.3911 109.709 20.4961V19.2021C109.709 16.6151 107.32 15.8191 104.434 15.8191C99.5583 15.8191 95.0803 18.8041 93.2893 19.9981V13.5301C95.2793 12.4351 99.0613 10.2461 105.529 10.2461C115.182 10.2461 117.073 15.1221 117.073 20.9931V41.9911L111.201 42.0901ZM103.141 28.7551C100.056 29.8501 98.9613 31.3431 98.9613 33.5321C98.9613 36.6171 101.648 37.3141 102.942 37.3141C104.136 37.3141 106.723 36.9161 109.709 33.8311V26.1681C109.31 26.4671 109.111 26.5661 107.818 27.0641L103.141 28.7551Z" fill="#152649"/>
<path d="M20.2463 42.0901L19.4503 38.8061C17.6593 40.3981 14.7733 42.7871 10.0963 42.7871C4.52333 42.7871 0.642334 39.2041 0.642334 34.2291C0.642334 31.0441 1.73733 27.2631 8.60333 24.8741L17.5593 21.8891C18.8533 21.4911 18.9523 21.3911 18.9523 20.4961V19.2021C18.9523 16.6151 16.5643 15.8191 13.6783 15.8191C8.80233 15.8191 4.32433 18.8041 2.53333 19.9981V13.5301C4.52333 12.4351 8.30533 10.2461 14.7733 10.2461C24.4263 10.2461 26.3163 15.1221 26.3163 20.9931V41.9911L20.2463 42.0901ZM12.2853 28.7551C9.20033 29.8501 8.10533 31.3431 8.10533 33.5321C8.10533 36.6171 10.7923 37.3141 12.0863 37.3141C13.2803 37.3141 15.8683 36.9161 18.8533 33.8311V26.1681C18.4553 26.4671 18.2563 26.5661 16.9623 27.0641L12.2853 28.7551Z" fill="#152649"/>
<path d="M120.157 42.0902V0.792236H127.521V42.0902H120.157Z" fill="#152649"/>
<path d="M133.791 16.6151H129.313V10.9431H133.791V0.693115H141.155V10.9431H146.727V16.6151H141.155V32.3381C141.155 34.6271 141.453 36.7161 144.837 36.7161C145.732 36.7161 146.429 36.6171 147.026 36.5171V42.0901C146.031 42.1901 145.036 42.2891 143.543 42.2891C135.283 42.2891 133.791 38.2091 133.791 32.7361V16.6151Z" fill="#152649"/>
<path d="M149.613 8.15612V0.693115H156.977V8.15612H149.613ZM149.613 42.0901V11.0421H156.977V42.0901H149.613Z" fill="#152649"/>
<path d="M183.945 19.4011C182.453 18.1081 180.064 16.2171 175.885 16.2171C169.516 16.2171 166.929 21.4911 166.929 26.5661C166.929 28.7551 167.526 36.9161 175.686 36.9161C179.965 36.9161 182.652 35.0251 184.642 33.6321V40.1991C183.149 40.9961 179.766 42.6871 174.492 42.6871C163.943 42.6871 159.465 34.7261 159.465 26.4671C159.465 17.9081 164.341 10.2461 174.79 10.2461C179.865 10.2461 182.652 11.8381 183.945 12.5351V19.4011Z" fill="#152649"/>
</g>
<defs>
<clipPath id="clip0_842_235">
<rect width="184" height="42" fill="white" transform="translate(0.642334 0.690186)"/>
</clipPath>
</defs>
</svg>
