<svg width="852" height="141" viewBox="0 0 852 141" fill="none" xmlns="http://www.w3.org/2000/svg">
<path d="M58.8999 36.9229H40.2762L48.2303 15.0466H51.7133L58.8999 36.9229ZM102.01 60.3344L79.3753 1.99756H25.5193L0.716553 60.3344H32.7059L35.4883 52.4666H63.1504L65.6163 60.3344H102.01Z" fill="#2A428F"/>
<path d="M110.511 1.99756H143.661V60.3344H110.511V1.99756Z" fill="#2A428F"/>
<path d="M232.893 37.0189L250.203 60.3344H210.873L194.034 32.1255V31.7416H207.784C212.965 31.7416 217.676 29.3429 217.676 23.586C217.676 18.021 212.418 16.3899 208.014 16.3899H193.804V60.3344H160.654V1.99756H222.934C241.164 1.99756 250.279 8.13826 250.279 20.2278C250.279 29.8227 242.095 35.2918 232.893 37.0189Z" fill="#2A428F"/>
<path d="M334.282 19.2683V29.0551H372.527V44.215H334.282V60.3344H301.132V1.99756H375.54V19.2683H334.282Z" fill="#2A428F"/>
<path d="M458.603 37.0189L475.912 60.3344H436.583L419.734 32.1255V31.7416H433.493C438.665 31.7416 443.386 29.3429 443.386 23.586C443.386 18.021 438.128 16.3899 433.724 16.3899H419.504V60.3344H386.363V1.99756H448.634C466.864 1.99756 475.989 8.13826 475.989 20.2278C475.989 29.8227 467.795 35.2918 458.603 37.0189Z" fill="#2A428F"/>
<path d="M536.974 36.9229H518.408L526.362 15.0466H529.836L536.974 36.9229ZM580.151 60.3344L557.507 1.99756H503.651L478.848 60.3344H510.828L513.611 52.4666H541.292L543.786 60.3344H580.151Z" fill="#2A428F"/>
<path d="M643.861 60.3344L616.036 35.5797H615.652V60.3344H588.594V1.99756H621.409L645.876 24.3536H646.356V1.99756H673.317V60.3344H643.861Z" fill="#2A428F"/>
<path d="M735.3 61.6778C701.334 61.6778 683.776 50.068 683.776 30.8782C683.776 11.5925 700.375 0.654297 734.82 0.654297C745.375 0.654297 759.287 2.28545 766.292 4.39633L764.565 22.7225C759.096 20.8996 750.94 19.4603 744.703 19.4603C725.705 19.4603 719.181 24.7375 719.181 30.9741C719.181 37.3068 725.705 42.488 744.703 42.488C750.94 42.488 759.575 41.1447 765.14 39.4177L766.867 57.8398C759.959 59.9506 745.663 61.6778 735.3 61.6778Z" fill="#2A428F"/>
<path d="M777.326 60.3344V1.99756H849.383V17.4453H810.428V24.7374H846.409V36.635H810.428V44.5988H850.918V60.3344H777.326Z" fill="#2A428F"/>
<path d="M808.029 140.74L851.11 89.5989H721.004L677.827 140.74H808.029Z" fill="#E03E32"/>
<path d="M250.26 89.5989L207.131 140.74H401.514L444.643 89.5989H250.26Z" fill="#2A428F"/>
<path d="M649.33 89.5989L606.249 140.74H624.575L667.752 89.5989H649.33Z" fill="#2A428F"/>
<path d="M468.073 89.5989L424.944 140.74H494.066L537.166 89.5989H468.073Z" fill="#2A428F"/>
<path d="M571.803 89.5989L528.703 140.74H563.168L606.249 89.5989H571.803Z" fill="#2A428F"/>
</svg>
