<svg width="224" height="53" viewBox="0 0 224 53" fill="none" xmlns="http://www.w3.org/2000/svg">
<g clip-path="url(#clip0_842_246)">
<path d="M47.7434 51.9605L51.9084 22.3459L23.4504 51.9605" fill="#BE210C"/>
<path d="M57.5025 0.5C52.0633 0.5 48.2796 1.90212 43.4007 7.21723L0.5 51.9605H16.8363L59.1484 7.89763L52.9557 51.9605H65.5014L72.7204 0.5" fill="#00663F"/>
<path d="M135.959 45.0311C135.319 44.5481 134.994 43.8237 134.994 42.8538C134.994 40.5645 136.389 38.8569 139.083 38.3939C139.635 38.3005 140.876 38.2447 141.558 38.2447H145.164L144.11 45.7663H138.828C137.534 45.7663 136.615 45.5248 135.959 45.0312V45.0311ZM133.313 20.9879L129.437 27.309H143.036C145.653 27.309 146.328 28.1081 146.328 29.5903C146.328 30.0332 146.26 30.6108 146.166 31.2219C146.128 31.3738 146.098 31.6595 146.041 32.0491H140.445C134.649 32.0491 130.917 32.7855 127.963 35.7912C126.29 37.4962 125.036 40.4099 125.036 44.1134C125.036 46.9843 126.255 49.1976 128.378 50.4757C129.791 51.3282 132.388 51.9606 136.162 51.9606H154.247L156.788 33.8941C157.014 32.2679 157.263 30.6335 157.263 28.4549C157.263 25.9081 156.083 23.4574 152.935 22.0979C151.179 21.3415 148.803 20.9879 145.697 20.9879H133.313ZM201.884 45.0312C201.243 44.5483 200.92 43.8239 200.92 42.8539C200.92 40.5646 202.315 38.857 205.009 38.394C205.56 38.3007 206.802 38.2448 207.482 38.2448H211.087L210.036 45.7665H204.754C203.456 45.7665 202.541 45.5249 201.884 45.0313V45.0312ZM196.694 20.988L195.806 27.3091H208.962C211.577 27.3091 212.253 28.1082 212.253 29.5904C212.253 30.0333 212.185 30.611 212.091 31.222C212.053 31.3739 212.023 31.6596 211.966 32.0492H206.37C200.573 32.0492 196.84 32.7856 193.888 35.7913C192.213 37.4963 190.96 40.41 190.96 44.1135C190.96 46.9845 192.181 49.1977 194.3 50.4758C195.714 51.3283 198.311 51.9607 202.084 51.9607H220.172L222.71 33.8942C222.94 32.2679 223.186 30.6336 223.186 28.4551C223.186 25.9083 222.008 23.4575 218.857 22.098C217.104 21.3416 214.728 20.988 211.622 20.988H196.694ZM91.3631 20.9868L87.0087 51.9607H98.0072L102.359 20.9868H91.3631ZM179.806 20.9868L175.453 51.9607H186.453L190.805 20.9868H179.806ZM76.1785 13.4023L70.759 51.9607H81.7563L87.1754 13.4023H76.1785ZM92.429 13.4023L91.6806 18.7094H102.681L103.426 13.4023H92.429ZM108.601 13.4023L104.588 42.0042C104.365 43.5998 104.233 44.8365 104.233 45.6223C104.233 46.7897 104.324 47.346 104.509 48.0451C105.242 50.8694 107.421 51.9607 110.742 51.9607H121.289L122.24 45.6397H117.891C116.066 45.6397 115.402 45.0567 115.402 43.8587C115.402 43.4826 115.443 42.9728 115.538 42.3231L117.647 27.3091H125.123L128.996 20.988H118.534L119.6 13.4023H108.601ZM164.686 13.4023L159.265 51.9607H170.265L175.686 13.4023H164.686ZM180.873 13.4023L180.125 18.7094H191.125L191.872 13.4023" fill="#00663F"/>
</g>
<defs>
<clipPath id="clip0_842_246">
<rect width="223.686" height="52.4608" fill="white"/>
</clipPath>
</defs>
</svg>
