<svg width="20" height="18" viewBox="0 0 20 18" fill="none" xmlns="http://www.w3.org/2000/svg">
<path d="M6.42857 14.4V6.3H4.28571V14.4H6.42857ZM11.0714 14.4V6.3H8.92857V14.4H11.0714ZM15.7143 14.4V6.3H13.5714V14.4H15.7143ZM17.1857 3.6C18.7286 3.6 20 4.392 20 5.4V15.3C20 16.317 18.7286 17.1 17.1857 17.1C17.1857 17.622 16.5143 18 15.7143 18C15 18 14.2857 17.622 14.2857 17.1H5.71429C5.71429 17.622 5 18 4.28571 18C3.48571 18 2.81429 17.622 2.81429 17.1C1.27143 17.1 0 16.317 0 15.3V5.4C0 4.392 1.27143 3.6 2.81429 3.6H5.71429V0.9C5.71429 0.378 6.37143 0 7.14286 0H12.8571C13.6286 0 14.2857 0.378 14.2857 0.9V3.6H17.1857ZM7.85714 1.35V3.6H12.1429V1.35H7.85714ZM17.1857 15.3V5.4H2.81429V15.3" fill="#0C73FE"/>
</svg>
