<svg width="242" height="38" viewBox="0 0 242 38" fill="none" xmlns="http://www.w3.org/2000/svg">
<path d="M0.387939 37.2421C0.917939 36.9711 1.15494 36.3281 1.15494 35.7781V22.2851C1.15494 21.7141 0.917939 21.0901 0.387939 20.8031H6.81894C9.68694 20.8031 12.4849 21.9771 12.4849 25.2331C12.4849 26.9601 10.9799 28.3221 9.35694 28.6281C11.6949 28.6071 13.9539 30.0351 13.9539 32.6151C13.9539 36.3021 10.0869 37.2431 7.36694 37.2431H0.387939V37.2421ZM5.59394 22.2191C5.29594 22.2191 5.08894 22.2191 4.53994 22.2851V28.0391H5.19094C7.16194 28.0391 9.06694 27.4301 9.06694 25.1461C9.06694 22.8801 7.54394 22.2191 5.59394 22.2191ZM6.00394 29.5201C5.53394 29.5201 5.11194 29.5201 4.53994 29.5631V35.6391C5.25294 35.7791 6.02394 35.8251 6.73494 35.8251C8.38494 35.8251 10.0629 35.0891 10.0629 32.5681C10.0629 30.0801 8.07894 29.5201 6.00394 29.5201ZM20.3139 22.2191C20.0199 22.2191 19.7609 22.2671 19.4709 22.3081V27.9931C19.7399 28.0121 19.9839 28.0401 20.2499 28.0401C22.0999 28.0401 23.4689 27.0191 23.4689 25.0071C23.4689 22.9511 22.1229 22.2191 20.3139 22.2191ZM28.6029 37.3391C27.9729 37.3391 27.2779 37.3621 26.6759 37.1841C25.5569 36.8541 24.0119 34.3321 23.3979 33.3431C22.4429 31.7351 21.6129 29.5201 19.4719 29.4961V35.7781C19.4719 36.3281 19.7209 36.9941 20.2509 37.2421H15.3139C15.8329 36.9711 16.0799 36.3531 16.0799 35.7781V22.2851C16.0799 21.7141 15.8319 21.0901 15.3139 20.8031H21.2579C23.8439 20.8031 27.0799 21.7961 27.0799 24.9031C27.0799 27.5101 24.9229 28.8461 22.5179 28.8461C25.9399 28.8661 27.9499 36.8931 31.7279 36.9161C30.7149 37.2161 29.6589 37.3391 28.6029 37.3391ZM31.9759 37.2421C32.3839 37.0551 32.8109 36.5161 32.8109 35.7781V22.2851C32.8109 21.5361 32.3839 21.0061 31.9759 20.8031H37.0349C36.6009 21.0061 36.2049 21.5361 36.2049 22.2851V35.7781C36.2049 36.5161 36.6009 37.0551 37.0349 37.2421H31.9759ZM42.9539 37.2421C43.4959 36.9941 43.7609 36.3531 43.7609 35.7781V22.6881H40.1279C39.2899 22.6881 38.2909 22.7911 37.5709 23.2181L38.6999 20.8021H50.7499C51.7259 20.8021 52.7239 20.7811 53.6719 20.5791C53.2129 21.8161 51.8469 22.7331 51.0599 22.7331C50.1029 22.7111 48.5199 22.6471 47.1559 22.6471V35.7771C47.1559 36.3521 47.4409 36.9931 47.9729 37.2411H42.9539V37.2421ZM54.2739 37.2421C54.6779 37.0551 55.1019 36.5161 55.1019 35.7781V22.2851C55.1019 21.5361 54.6779 21.0061 54.2739 20.8031H59.3329C58.9029 21.0061 58.4909 21.5361 58.4909 22.2851V35.7781C58.4909 36.5161 58.9029 37.0551 59.3329 37.2421H54.2739ZM69.1829 33.5231C69.1829 30.3921 61.8079 29.6851 61.8079 24.6871C61.8079 21.5931 64.7509 20.5801 67.3389 20.5801C68.4939 20.5801 70.1649 20.7401 71.2209 21.2261L71.4049 24.2991C70.7559 22.9421 69.1309 21.9591 67.6219 21.9591C66.4289 21.9591 65.1789 22.5491 65.1789 23.9131C65.1789 27.1601 72.6789 27.9531 72.6789 32.6871C72.6789 36.1231 69.6769 37.5461 66.6469 37.5461C65.0619 37.5461 62.9059 37.2411 61.5689 36.3271C61.4879 35.7771 61.4509 35.2021 61.4509 34.6391C61.4509 33.9681 61.5099 33.2951 61.6089 32.6331C62.4429 34.5341 64.1689 36.0211 66.3249 36.0211C67.9629 36.0221 69.1829 35.3081 69.1829 33.5231ZM84.9829 37.2421C85.3399 37.0811 85.7219 36.5161 85.7219 35.7781V29.6611C84.8419 29.5621 83.6129 29.5191 82.2339 29.5191C80.8339 29.5191 79.5949 29.5621 78.6929 29.6611V35.7781C78.6929 36.5161 79.0649 37.0551 79.4269 37.2421H74.5559C74.9169 37.0811 75.3019 36.5161 75.3019 35.7781V22.2851C75.3019 21.5361 74.9169 20.9841 74.5559 20.8031H79.4269C79.0649 20.9851 78.6929 21.5361 78.6929 22.2851V27.8121C79.5949 27.9071 80.8119 27.9531 82.2339 27.9531C83.6129 27.9531 84.8419 27.8931 85.7219 27.8121V22.2851C85.7219 21.5361 85.3409 20.9841 84.9829 20.8031H89.8469C89.4829 20.9851 89.1219 21.5361 89.1219 22.2851V35.7781C89.1219 36.5161 89.4829 37.0551 89.8469 37.2421H84.9829Z" fill="#2E5C99"/>
<path d="M107.902 37.2421C108.059 37.0811 108.201 36.9611 108.201 36.6701C108.201 36.5721 108.164 36.4081 108.044 36.1021C108.044 36.1021 106.694 32.4281 106.536 32.0001C105.522 31.8751 104.465 31.8751 103.43 31.8751C102.448 31.8751 101.451 31.8981 100.478 32.0001C100.34 32.3681 98.893 36.0221 98.893 36.0221C98.698 36.5161 98.631 36.6851 98.631 36.7931C98.631 37.0371 98.841 37.1561 99.019 37.2421H95.71C96.198 36.9941 96.621 36.4841 96.83 35.9761L102.268 21.9401C102.293 21.8821 102.302 21.8171 102.302 21.7381C102.302 21.3511 102.045 20.9841 101.699 20.8021H105.965L111.496 35.9621C111.722 36.5711 112.204 37.0151 112.609 37.2411H107.902V37.2421ZM103.607 23.9321L101.114 30.3321C101.857 30.4141 102.628 30.4331 103.38 30.4331C104.242 30.4331 105.094 30.4331 105.932 30.3321L103.607 23.9321ZM113.451 37.2421C113.859 37.0551 114.281 36.5161 114.281 35.7781V22.2851C114.281 21.5361 113.859 21.0061 113.451 20.8031H118.507C118.077 21.0061 117.676 21.5361 117.676 22.2851V35.7781C117.676 36.5161 118.076 37.0551 118.507 37.2421H113.451ZM126.193 22.2191C125.92 22.2191 125.658 22.2671 125.374 22.3081V27.9931C125.638 28.0121 125.879 28.0401 126.136 28.0401C127.99 28.0401 129.356 27.0191 129.356 25.0071C129.355 22.9511 128.004 22.2191 126.193 22.2191ZM134.895 37.3391C134.265 37.3391 133.585 37.3621 132.969 37.1841C131.848 36.8541 130.307 34.3321 129.692 33.3431C128.741 31.7351 127.503 29.4961 125.374 29.4961V35.7781C125.374 36.3281 125.612 36.9941 126.136 37.2421H121.203C121.733 36.9711 121.98 36.3531 121.98 35.7781V22.2851C121.98 21.7141 121.733 21.0901 121.203 20.8031H127.16C129.739 20.8031 132.97 21.7961 132.97 24.9031C132.97 27.5101 130.613 28.8461 128.829 28.8461C132.376 29.0501 134.515 36.9161 138.034 36.9161C137.014 37.2161 135.958 37.3391 134.895 37.3391ZM155.405 22.4081L150.409 37.2421C149.997 37.2421 149.593 37.1001 149.364 36.9391C148.87 36.4631 148.093 34.4761 147.813 33.7431L145.555 28.0391L142.303 37.2421H140.755L135.164 22.3711C134.924 21.7381 134.514 21.1311 133.904 20.8031H138.763C138.558 20.9621 138.417 21.1431 138.417 21.4891C138.417 21.6551 138.499 21.8841 138.558 22.0611L142.199 31.8991L146.076 20.8031L150.346 31.5001L153.58 21.8171C153.66 21.5541 153.707 21.4571 153.707 21.2911C153.707 21.0901 153.62 20.9621 153.417 20.8031H156.635C156.04 21.1151 155.61 21.7961 155.405 22.4081ZM161.377 23.9321L158.885 30.3321C159.637 30.4141 160.406 30.4331 161.156 30.4331C162.009 30.4331 162.871 30.4331 163.704 30.3321L161.377 23.9321ZM165.667 37.2421C165.837 37.0811 165.966 36.9611 165.966 36.6701C165.966 36.5721 165.916 36.4081 165.817 36.1021C165.817 36.1021 164.476 32.4281 164.313 32.0001C163.29 31.8751 162.235 31.8751 161.2 31.8751C160.227 31.8751 159.229 31.8981 158.251 32.0001C158.11 32.3681 156.673 36.0221 156.673 36.0221C156.466 36.5161 156.409 36.6851 156.409 36.7931C156.409 37.0371 156.61 37.1561 156.786 37.2421H153.476C153.965 36.9941 154.387 36.4841 154.592 35.9761L160.049 21.9401C160.065 21.8821 160.08 21.8171 160.08 21.7381C160.08 21.3511 159.822 20.9841 159.467 20.8021H163.737L169.266 35.9621C169.495 36.5711 169.983 37.0151 170.385 37.2411H165.667V37.2421ZM180.522 22.5291L176.628 29.3571V35.7781C176.628 36.3001 176.842 36.9941 177.362 37.2421H172.517C173.012 36.9711 173.24 36.2831 173.24 35.7781V29.3361L169.855 23.9131C169.552 23.4061 168.14 21.0431 166.419 21.0431C166.887 20.8651 168.31 20.5941 169.265 20.5941C170.858 20.5941 171.647 20.7401 172.622 22.2671L175.754 27.2311C176.017 26.7441 178.497 22.4321 178.497 22.4321C178.796 21.9071 179.001 21.5361 179.001 21.3521C179.001 21.1161 178.899 20.9621 178.659 20.8031H182.149C181.465 21.1311 180.895 21.8831 180.522 22.5291ZM189.637 33.5231C189.637 30.3921 182.261 29.6851 182.261 24.6871C182.261 21.5931 185.196 20.5801 187.785 20.5801C188.944 20.5801 190.605 20.7401 191.666 21.2261L191.85 24.2991C191.194 22.9421 189.576 21.9591 188.066 21.9591C186.871 21.9591 185.629 22.5491 185.629 23.9131C185.629 27.1601 193.129 27.9531 193.129 32.6871C193.129 36.1231 190.148 37.5461 187.096 37.5461C185.512 37.5461 183.351 37.2411 182.012 36.3271C181.925 35.7771 181.883 35.2021 181.883 34.6391C181.883 33.9681 181.947 33.2951 182.049 32.6331C182.882 34.5341 184.614 36.0211 186.77 36.0211C188.415 36.0221 189.637 35.3081 189.637 33.5231Z" fill="#2E5C99"/>
<path d="M235.014 9.29607C232.25 12.0431 226.262 14.4011 223.316 15.5051C219.291 17.0171 217.505 17.5521 215.253 18.2851C212.704 19.1121 207.605 20.6551 207.605 20.6551C218.168 23.8091 225.612 24.7601 225.612 24.7601C225.612 24.7601 229.08 23.6881 234.574 20.7501C237.549 19.2381 239.013 18.2201 240.06 17.2471C240.446 16.8981 241.443 15.8601 241.691 14.5321C241.707 14.4351 241.755 14.1811 241.755 13.9311C241.755 13.9311 241.755 13.7551 241.739 13.6021C241.733 13.4261 241.702 13.3081 241.702 13.3081C241.702 13.3081 241.643 12.9931 241.565 12.7721C241.484 12.5511 241.144 11.8691 240.593 11.4261C240.225 11.1271 239.589 10.3821 237.285 9.57207C236.502 9.30007 235.234 9.04907 235.234 9.04907L235.014 9.29607Z" fill="url(#paint0_linear_842_228)"/>
<path d="M241.754 13.8611C241.754 13.8611 241.738 13.5671 241.666 13.3181C241.61 13.0961 241.511 12.8841 241.362 12.6611C241.182 12.3961 240.939 12.0851 240.58 11.7411C240.309 11.4851 240.012 11.2591 239.654 11.0191C238.213 10.0751 236.353 9.5431 234.707 9.3181C232.156 8.9791 229.23 9.03911 228.953 9.02911C228.012 9.01611 221.932 9.0661 220.369 9.0941C213.428 9.2371 204.931 9.2561 202.705 9.2561C179.726 9.3611 169.724 8.8661 158.592 6.6341C149.122 4.7531 143.868 2.9661 143.868 2.9661C152.221 2.6771 200.959 0.655105 209.85 0.419105C215.671 0.255105 219.804 0.220105 223.111 0.411105C224.807 0.506105 226.385 0.650105 228.367 0.987105C230.144 1.2911 231.758 1.8071 232.698 2.1561C234.678 2.8891 236.347 3.9491 237.172 5.0351C237.172 5.0351 237.416 5.2851 237.747 5.7291C238.118 6.2451 238.549 6.88011 238.695 7.11711C239.9 8.9431 240.472 10.0901 240.671 10.4901C240.886 10.9101 241.076 11.3461 241.261 11.7731C241.442 12.1971 241.516 12.4541 241.574 12.6331C241.701 13.0821 241.732 13.4911 241.738 13.5831L241.754 13.8611Z" fill="#CE210F"/>
<defs>
<linearGradient id="paint0_linear_842_228" x1="231.493" y1="5.96007" x2="219.157" y2="27.3265" gradientUnits="userSpaceOnUse">
<stop stop-color="#E6EBEF"/>
<stop offset="0.0764" stop-color="#BBCEE5"/>
<stop offset="0.1854" stop-color="#85A9D8"/>
<stop offset="0.2796" stop-color="#5D8FCF"/>
<stop offset="0.3543" stop-color="#457EC9"/>
<stop offset="0.4" stop-color="#3C78C7"/>
<stop offset="0.9" stop-color="#2E5C99"/>
</linearGradient>
</defs>
</svg>
