<svg width="351" height="205" viewBox="0 0 351 205" fill="none" xmlns="http://www.w3.org/2000/svg">
<g clip-path="url(#clip0_842_46)">
<path d="M169.508 0.184082H180.488C180.578 3.91408 180.568 7.63408 180.548 11.3641C184.218 11.3541 187.898 11.3741 191.568 11.3441C191.598 15.0041 191.598 18.6641 191.488 22.3241C187.848 22.3241 184.198 22.3441 180.558 22.3241C180.558 25.9241 180.548 29.5341 180.578 33.1441C176.958 33.3741 173.338 33.3241 169.718 33.2941C169.698 29.6341 169.698 25.9641 169.678 22.2941C165.998 22.3441 162.328 22.3241 158.658 22.3341C158.598 18.6841 158.608 15.0241 158.598 11.3741C162.298 11.3641 165.998 11.3541 169.688 11.3741C169.608 7.64408 169.938 3.89408 169.508 0.184082Z" fill="#00A1E4"/>
<path d="M105.928 31.094C116.988 28.434 129.128 37.634 128.888 49.144C129.738 59.204 120.938 68.634 110.928 68.824C101.958 69.594 93.1776 62.984 91.2876 54.224C88.5176 44.204 95.7576 32.984 105.928 31.094Z" fill="#00A1E4"/>
<path d="M149.898 31.0742C160.948 28.4542 173.128 37.6742 172.818 49.1842C173.708 59.5342 164.288 69.1242 153.998 68.8542C144.918 69.2442 136.438 62.1142 135.008 53.1842C132.978 43.3742 140.068 32.9042 149.898 31.0742Z" fill="#00A1E4"/>
<path d="M193.888 31.0941C204.608 28.5441 216.318 37.1141 216.728 48.2041C217.588 55.7341 213.278 63.3041 206.588 66.7341C199.558 70.5241 190.248 69.1841 184.518 63.6441C178.088 57.6241 176.748 47.0241 181.568 39.6341C184.278 35.2641 188.818 32.0641 193.888 31.0941Z" fill="#00A1E4"/>
<path d="M237.948 31.0742C247.558 28.9142 257.978 35.4842 260.188 45.0842C262.118 52.4742 259.178 60.7842 252.948 65.2342C247.158 69.5542 238.848 70.0942 232.548 66.5642C225.668 62.9942 221.578 54.8842 222.768 47.2342C223.678 39.3442 230.118 32.4642 237.948 31.0742Z" fill="#00A1E4"/>
<path d="M109.458 96.564C109.178 88.924 109.308 81.264 109.388 73.624C153.358 73.754 197.328 73.654 241.298 73.674C241.308 81.284 241.308 88.884 241.298 96.484C197.348 96.534 153.398 96.384 109.458 96.564Z" fill="#00A1E4"/>
<path d="M0.987549 115.934C12.0875 115.934 23.1876 115.924 34.2976 115.944C34.3176 126.564 34.2775 137.194 34.3075 147.824C45.3175 137.284 56.0775 126.494 67.0875 115.954C78.2775 115.924 89.4675 115.924 100.658 115.954C87.7575 129.064 74.5076 141.834 61.7076 155.034C77.8375 170.674 93.4175 186.894 109.688 202.364C109.828 173.564 109.708 144.754 109.748 115.944C121.098 115.924 132.448 115.924 143.798 115.944C143.798 137.794 143.778 159.644 143.798 181.494C161.928 181.444 180.048 181.554 198.168 181.434C198.418 188.844 198.208 196.264 198.288 203.674C154.228 203.674 110.158 203.714 66.0975 203.654C55.6775 193.104 45.1175 182.694 34.6475 172.194C34.4975 182.704 34.6675 193.204 34.5575 203.714C23.3675 203.634 12.1775 203.724 0.987549 203.664V115.934Z" fill="#00A1E4"/>
<path d="M207.617 115.934C225.897 115.874 244.177 116.054 262.457 115.844C268.227 131.534 273.277 147.494 278.727 163.304C279.177 162.594 279.817 161.994 280.047 161.164C285.257 146.074 290.587 131.024 295.847 115.944C314.227 115.924 332.607 115.914 350.987 115.954V203.614C339.737 203.754 328.477 203.664 317.227 203.664C317.207 183.484 317.327 163.294 317.167 143.104C315.597 143.984 315.437 145.974 314.767 147.464C308.237 166.214 301.537 184.904 295.007 203.654C284.427 203.654 273.837 203.794 263.267 203.584C256.637 184.414 249.777 165.334 243.087 146.194C242.847 145.124 242.247 144.344 241.307 143.844C241.277 163.784 241.317 183.734 241.297 203.684C230.067 203.684 218.837 203.684 207.607 203.674C207.627 174.434 207.597 145.184 207.617 115.934Z" fill="#00A1E4"/>
</g>
<defs>
<clipPath id="clip0_842_46">
<rect width="350" height="204" fill="white" transform="translate(0.987549 0.184082)"/>
</clipPath>
</defs>
</svg>
