<svg width="20" height="16" viewBox="0 0 20 16" fill="none" xmlns="http://www.w3.org/2000/svg">
<path d="M18.19 0H2C0.9 0 0.00999999 0.9 0.00999999 2V6C1.11 6 2 6.9 2 8C2 9.1 1.11 10 0 10V14C0 15.1 0.9 16 2 16H18C19.1 16 20 15.1 20 14V2C20 0.9 19.19 0 18.19 0ZM18 14H2V11.46C3.19 10.77 4 9.47 4 8C4 6.52 3.2 5.23 2.01 4.54L2 2H18V14ZM6.87 11.66L5.21 8.78L6.14 8.53L7.4 9.52L9.79 8.88L7.39 4.72L8.79 4.34L12.8 8.08L15.24 7.43C15.4866 7.36479 15.749 7.39967 15.97 7.52703C16.191 7.6544 16.3528 7.86393 16.42 8.11C16.4822 8.35913 16.4449 8.62267 16.3161 8.8448C16.1873 9.06693 15.9771 9.23019 15.73 9.3L6.87 11.66V11.66Z" fill="white"/>
</svg>
