<svg width="1064" height="454" viewBox="0 0 1064 454" fill="none" xmlns="http://www.w3.org/2000/svg">
<path fill-rule="evenodd" clip-rule="evenodd" d="M162.712 339.452H285.116C273.499 320.092 266.818 297.425 266.818 273.214C266.818 173.802 347.404 93.224 446.824 93.224L1063.05 96.0552L1031.24 206.95H909.672L839.843 450.355H709.012L778.825 206.95H655.995C667.604 226.318 674.285 248.985 674.285 273.214C674.285 372.608 593.707 453.187 494.296 453.187L491.063 453.161L0.0610352 450.355L101.661 96.0552H232.508L162.712 339.452ZM395.794 273.214C395.794 231.922 429.268 198.457 470.56 198.457C511.851 198.457 545.317 231.922 545.317 273.214C545.317 314.505 511.851 347.971 470.56 347.971C429.268 347.971 395.794 314.505 395.794 273.214ZM453.238 286.075L494.905 202.507C500.042 205.013 503.508 210.492 503.508 216.588C503.508 219.478 502.731 222.201 501.336 224.514L465.482 284.196L477.592 282.325C478.218 282.234 478.87 282.192 479.513 282.192C486.286 282.192 491.782 287.679 491.782 294.452H525.523L522.491 290.627H516.319L514.958 288.756H532.898C534.835 291.988 538.284 294.218 542.268 294.452L541.684 296.315H465.799L497.194 320.401C500.668 323.074 502.856 327.325 502.856 332.052C502.856 336.119 501.236 339.878 498.572 342.542L451.526 296.315H399.436L398.86 294.452L453.238 286.075Z" fill="#063778"/>
<path fill-rule="evenodd" clip-rule="evenodd" d="M166.805 0.310584H176.777L163.055 48.1831H153.074L166.805 0.310584ZM676.632 8.2782L678.921 0.310584H655.995C649.706 0.310584 643.2 3.32558 641.371 9.68966L639.191 17.2898C637.704 22.493 640.686 27.2368 648.127 27.2368H659.302C660.897 27.2368 663.119 28.1304 661.866 32.4901L661.315 34.411C660.296 37.9271 657.156 40.1988 654.266 40.1988H632.643L630.346 48.1831H654.358C660.688 48.1831 668.03 45.711 670.443 37.3258L672.139 31.4294C674.536 23.0776 668.581 19.2608 662.827 19.2608H652.295C650.817 19.2608 648.712 18.885 649.564 15.9201L650.366 13.1306C651.443 9.36393 653.481 8.2782 656.32 8.2782H676.632ZM506.965 0.302232H516.937L503.215 48.1831H493.243L506.965 0.302232ZM385.889 0.302232H395.87L382.139 48.1831H372.167L385.889 0.302232ZM467.085 0.302232H477.057L465.615 40.1988H487.556L485.259 48.1831H453.355L467.085 0.302232ZM245.646 0.310584L231.924 48.1831H241.503L246.94 29.2329H271.261L265.832 48.1831H275.412L289.134 0.310584H279.571L273.557 21.2569H249.22L255.234 0.310584H245.646ZM582.457 48.1831L596.188 0.310584H630.121L627.824 8.2782H603.036L599.879 19.2608L620.483 19.2441L618.195 27.2284H597.599L593.882 40.1988H618.671L616.391 48.1831H582.457ZM521.163 48.1831L534.894 0.302232H547.38L557.418 36.2066C558.237 39.1548 558.237 40.1988 558.237 40.1988L569.687 0.302232H578.223L564.501 48.1831H551.681L541.951 12.2787C541.249 9.68966 541.183 8.04435 541.183 8.04435L529.69 48.1831H521.163ZM225.284 8.2782L227.589 0.310584H204.655C198.366 0.310584 191.852 3.31723 190.023 9.68966L187.843 17.2898C186.356 22.493 189.338 27.2368 196.779 27.2368H207.962C209.558 27.2368 211.771 28.1304 210.51 32.4901L209.967 34.411C208.948 37.9271 205.808 40.1988 202.926 40.1988H181.295L179.007 48.1831H203.018C209.34 48.1831 216.69 45.711 219.095 37.3258L220.791 31.4294C223.204 23.0776 217.225 19.2608 211.479 19.2608H200.947C199.46 19.2608 197.372 18.885 198.216 15.9201L199.018 13.1306C200.095 9.36393 202.141 8.2782 204.981 8.2782H225.284ZM126.925 0.302232H136.889L125.447 40.1988H147.378L145.098 48.1831H113.195L126.925 0.302232ZM34.9883 8.2782C38.1285 8.2782 38.6464 10.9675 38.1453 12.6963L36.5584 18.2252C35.2555 22.7268 31.1882 24.2385 28.9833 24.2385H16.8398L21.4166 8.2782H34.9883ZM13.7914 0.302232L0.0610352 48.1831H10.0331L14.8771 31.2206H29.9772C34.8797 31.2206 43.4821 28.832 45.5533 21.6077L48.0505 12.88C50.7147 3.59284 42.6719 0.302232 39.1308 0.302232H13.7914ZM412.916 0.310584H438.255C441.788 0.310584 449.822 3.59284 447.175 12.88L445.638 18.2586C443.467 25.817 434.246 26.5603 434.246 26.5603C441.587 29.592 441.846 31.3709 440.928 38.2111C440.009 45.0345 440.986 47.8073 441.404 48.1831H432.35C432.35 48.1831 430.496 45.6024 431.766 38.9043C433.302 30.8531 430.905 30.2685 428.675 30.2267H414.26L409.157 48.1831H399.185L412.916 0.310584ZM434.121 8.2782C437.253 8.2782 437.762 10.9675 437.278 12.6963L435.683 18.2252C434.589 21.2402 430.914 22.2341 428.7 22.2341H416.557L420.541 8.2782H434.121ZM360.191 48.1831L355.205 0.310584H344.23L311.316 48.1831H321.914L328.228 38.2027L349.801 38.2111L350.219 48.1831H360.191ZM349.5 31.0285L348.548 8.2782C348.507 7.19247 348.715 5.80607 348.715 5.80607L347.195 8.2782L332.763 31.0369L349.5 31.0285ZM70.1076 40.1904H83.6459C87.2455 40.1904 91.4214 37.2924 92.8412 32.3397L97.7103 15.3522C98.9297 11.1011 95.3467 8.34502 93.1586 8.34502L79.3781 8.37842C75.5613 8.38678 71.4439 11.5605 70.3749 15.2937L65.7479 31.421C64.0024 37.4844 67.4935 40.1904 70.1076 40.1904ZM80.3887 0.360695H93.8351C100.851 0.360695 109.069 6.75817 106.755 14.8594L100.959 35.0708C98.7209 42.9048 90.2104 48.1831 82.2929 48.1831H71.7362C61.6472 48.1831 53.9385 40.9254 56.6612 31.421L61.9646 12.9552C64.2029 5.12957 72.5129 0.360695 80.3887 0.360695Z" fill="#063778"/>
</svg>
