<svg width="68" height="12" viewBox="0 0 68 12" fill="none" xmlns="http://www.w3.org/2000/svg">
<g clip-path="url(#clip0_842_252)">
<path fill-rule="evenodd" clip-rule="evenodd" d="M39.7765 10.8528L40.1752 9.71393C40.2447 9.51891 40.4316 9.40664 40.5942 9.46336C40.7128 9.50502 40.7857 9.61613 40.7904 9.75386C40.7933 9.78569 40.7985 9.82735 40.8233 9.86613C41.1787 10.4986 41.994 10.9211 42.9749 10.8522C43.8198 10.7926 44.1526 10.2452 44.1063 9.58604C44.0889 9.33836 43.9222 9.0872 43.8609 9.00272C43.7562 8.86672 41.9836 6.73713 41.9836 6.73713C41.5884 6.20357 41.3297 5.55717 41.2799 4.84827C41.1405 2.85583 42.6184 1.1319 44.9957 0.965819C46.4905 0.858182 47.6658 1.25285 48.5553 1.93802L48.1618 3.05895C48.0935 3.25397 47.906 3.36624 47.7439 3.30953C47.6253 3.26786 47.5524 3.15675 47.5478 3.0196C47.5449 2.9872 47.5391 2.94553 47.5148 2.90676C47.1543 2.28061 46.4749 1.87321 45.4998 1.94207C44.6543 2.0011 44.1827 2.59542 44.2301 3.28406C44.2399 3.4189 44.2735 3.54563 44.3215 3.66485C44.4228 3.9079 44.5496 4.1388 44.7046 4.34597L45.6873 5.52361L46.1392 6.07279C46.5356 6.60519 47.0136 7.23712 47.0634 7.94718C47.2023 9.93846 45.7243 11.6618 43.3476 11.8285C41.8528 11.9361 40.6665 11.5386 39.7765 10.8528ZM58.1344 10.8528L58.5331 9.71393C58.6014 9.51891 58.7889 9.40664 58.9521 9.46336C59.0701 9.50502 59.143 9.61613 59.1477 9.75386C59.1506 9.78569 59.1558 9.82735 59.1807 9.86613C59.536 10.4986 60.3514 10.9211 61.3322 10.8522C62.1771 10.7926 62.5099 10.2452 62.4642 9.58604C62.4468 9.33836 62.2801 9.0872 62.2188 9.00272C62.1141 8.86672 60.3409 6.73713 60.3409 6.73713C59.9457 6.20357 59.687 5.55717 59.6372 4.84827C59.4978 2.85583 60.9758 1.1319 63.353 0.965819C64.8472 0.858182 66.0226 1.25285 66.9132 1.93802L66.5191 3.05895C66.4508 3.25397 66.2639 3.36624 66.1007 3.30953C65.982 3.26786 65.9091 3.15675 65.9045 3.0196C65.9022 2.9872 65.8964 2.94553 65.8721 2.90676C65.5116 2.28061 64.8322 1.87321 63.8565 1.94207C63.0116 2.0011 62.54 2.59542 62.588 3.28406C62.5973 3.4189 62.6308 3.54563 62.6783 3.66485C62.7801 3.9079 62.9069 4.1388 63.0614 4.34597L64.0446 5.52361L64.4971 6.07279C64.8924 6.60519 65.3715 7.23712 65.4201 7.94718C65.5602 9.93846 64.0822 11.6618 61.7049 11.8285C60.2102 11.9361 59.0244 11.5386 58.1344 10.8528ZM53.4261 2.36163L51.4267 6.97382C51.2526 7.3789 50.9233 8.16129 50.9048 8.70527C50.9048 9.13234 51.1698 9.43616 51.5164 9.52817C51.6195 9.55247 51.7497 9.58777 51.8608 9.58777C52.4238 9.58777 52.9123 9.2475 53.1223 8.76024L56.3352 1.30956L60.0261 1.31014C60.0724 1.3084 60.1187 1.31593 60.1639 1.33502C60.3317 1.4062 60.4046 1.59717 60.338 1.76557C60.2941 1.8761 60.2073 1.93629 60.0551 1.95481C59.7796 1.99821 59.6662 2.12436 59.5638 2.36568L57.738 6.58725C56.7849 9.04149 54.392 10.7712 51.6009 10.7712C50.6779 10.7712 49.8081 10.5588 49.0229 10.1821C48.281 9.80015 47.7671 9.0276 47.7671 8.13641C47.7862 7.22208 47.9968 6.33494 48.3626 5.55081L49.8116 2.19438C49.818 2.17818 49.8232 2.15851 49.8232 2.13941C49.8261 2.02078 49.7341 1.95944 49.6762 1.93397C49.5419 1.88189 49.4569 1.77078 49.4569 1.63884C49.4569 1.45713 49.6334 1.31014 49.851 1.31014H53.8833C53.9296 1.3084 53.9753 1.31593 54.0204 1.33502C54.1883 1.4062 54.2612 1.59717 54.1946 1.76557C54.1507 1.8761 54.0639 1.93629 53.9117 1.95481C53.6362 1.99821 53.5286 2.12089 53.4261 2.36163V2.36163ZM33.2291 5.6625H35.1707L34.6417 3.37376L33.2291 5.6625ZM0.767334 10.3794L4.34539 2.06129C4.35118 2.0445 4.35697 2.02425 4.35755 2.00631C4.35986 1.8871 4.26843 1.82576 4.21056 1.80029C4.0763 1.74821 3.99008 1.6371 3.99008 1.50458C3.99008 1.32345 4.16716 1.17646 4.38532 1.17646H8.2782L10.5067 1.18341C11.185 1.18341 11.7845 1.58271 12.0345 2.16892C12.1774 2.5254 12.2521 2.91081 12.2521 3.31937C12.2521 3.96172 12.0542 4.55835 11.7191 5.05255C11.0009 6.11677 9.82389 6.75449 8.55307 6.75449H5.86273L4.67236 9.55074C4.66657 9.56636 4.65673 9.58662 4.65673 9.60571C4.65673 9.67226 4.70418 9.73013 4.7609 9.7556C4.89631 9.8071 4.98138 9.91879 4.98138 10.0502C4.98138 10.2324 4.80488 10.3794 4.58671 10.3794H0.767334ZM6.34594 5.6677L7.85517 2.1614C7.85517 2.1614 8.09591 2.15503 8.17692 2.16777C8.34243 2.19381 8.46859 2.23258 8.59937 2.30897C9.20353 2.66428 9.24982 3.67295 8.70238 4.5624C8.28746 5.23773 7.68446 5.65902 6.93505 5.66423L6.34594 5.6677ZM15.5802 6.1405L14.1791 9.39449L17.4574 9.39681C17.7184 9.39681 17.8961 9.30711 18.0436 9.071C18.1212 8.93732 18.2693 8.86383 18.4059 8.86383C18.5882 8.86383 18.7352 9.01082 18.7352 9.19253C18.7352 9.24172 18.7236 9.28743 18.7045 9.3291L18.2468 10.3812H10.0733L13.6224 2.1533C13.6265 2.13652 13.634 2.03409 13.6323 2.01557C13.6224 1.88536 13.4725 1.8165 13.4153 1.79104C13.2804 1.73895 13.1954 1.62784 13.1954 1.49532C13.1954 1.31419 13.3464 1.17473 13.5999 1.17473H21.0436L20.4828 2.47389C20.3972 2.67354 20.1923 2.77771 20.0257 2.70595C19.9047 2.65329 19.8364 2.53118 19.8411 2.38651C19.8405 2.32401 19.8208 2.21522 19.7103 2.17066C19.6935 2.16371 19.6628 2.1614 19.6455 2.16024H17.3006L15.9789 5.2279L17.9499 5.22558C18.1727 5.20996 18.3012 5.18739 18.4348 4.97327C18.5112 4.84017 18.66 4.7661 18.7971 4.7661C18.9782 4.7661 19.094 4.91309 19.094 5.0948C19.094 5.14399 19.0824 5.1897 19.0633 5.23137L18.5292 6.45299C18.4435 6.6538 18.2381 6.75738 18.0714 6.6862C17.9499 6.63412 17.914 6.51144 17.9192 6.36734C17.9187 6.30485 17.8984 6.19547 17.7884 6.15091C17.7763 6.14628 17.7589 6.14397 17.7433 6.14223L15.5802 6.1405ZM36.0966 10.3771C35.8784 10.3771 35.7054 10.2319 35.7054 10.0502C35.7054 9.91821 35.7904 9.8071 35.9247 9.7556C35.982 9.72955 36.0775 9.66763 36.0717 9.549C36.0711 9.52875 36.0694 9.52122 36.0647 9.50328L35.4288 6.78053H32.5393L30.8675 9.48882C30.8548 9.51659 30.8519 9.53048 30.8519 9.54264C30.8496 9.66243 30.9422 9.72319 30.9994 9.74807C31.1343 9.80015 31.2205 9.91011 31.2211 10.0426C31.2222 10.2238 31.0463 10.3719 30.8287 10.3731L29.1129 10.3771C29.066 10.3788 29.0192 10.3696 28.9734 10.3505C28.8062 10.2799 28.7281 10.0866 28.7992 9.91994C28.8525 9.79321 28.9671 9.74634 29.1198 9.72782C29.3351 9.6931 29.4445 9.6115 29.5452 9.46104L34.7812 1.1782L37.9883 1.17762C38.2059 1.17762 38.3818 1.32866 38.3818 1.51037C38.3818 1.64231 38.2962 1.75342 38.1619 1.8055C38.1041 1.83154 38.0167 1.89115 38.0196 2.01036L39.9675 10.3771H36.0966ZM30.1968 5.63067C30.2425 5.62893 30.2888 5.63645 30.3351 5.65613C30.5018 5.72673 30.5758 5.9177 30.5081 6.08668C30.4647 6.19721 30.3779 6.25739 30.2252 6.27591C29.9503 6.31931 29.8397 6.43621 29.7373 6.67637L28.1546 10.3447H24.9382L24.8022 10.0964C23.918 10.4645 23.1662 10.6069 22.1391 10.6069C20.506 10.6069 19.1715 9.28338 19.1715 7.65089C19.1715 7.54962 19.1727 7.4495 19.1831 7.3517C19.6015 3.75744 22.646 0.948458 26.3525 0.948458C28.1384 0.948458 29.1557 1.27773 30.6493 2.00457L30.2547 2.94669C30.2419 2.97562 30.2275 3.00166 30.2107 3.02597C30.11 3.17296 29.9381 3.24414 29.7969 3.17874C29.6198 3.0983 29.6603 2.98893 29.5764 2.80838C29.4393 2.51151 29.2576 2.41718 29.1418 2.33732C28.562 1.97159 28.1708 1.9577 27.775 1.9577C26.8392 1.9577 25.992 2.30839 25.3439 2.8865C23.9423 4.12838 22.9643 5.80254 22.69 7.84128C22.6807 7.9032 22.6755 7.96627 22.6755 8.03109C22.6755 8.75619 23.2536 9.3534 23.9793 9.3534C24.8688 9.3534 25.356 8.83952 25.6974 8.07854L26.3236 6.60866C26.3294 6.59246 26.3381 6.54037 26.3381 6.52186C26.3381 6.33031 26.1812 6.27649 26.1234 6.25045C25.9891 6.19837 25.9006 6.09073 25.9006 5.95879C25.9006 5.77708 26.0412 5.63009 26.2947 5.63009" fill="#E31F26"/>
</g>
<defs>
<clipPath id="clip0_842_252">
<rect width="66.3458" height="11.0977" fill="white" transform="translate(0.667236 0.848145)"/>
</clipPath>
</defs>
</svg>
